<mxfile host="www.draw.io" modified="2020-01-08T05:04:28.559Z" agent="Mozilla/5.0 (X11; Linux x86_64) AppleWebKit/537.36 (KHTML, like Gecko) Chrome/79.0.3945.88 Safari/537.36" etag="j6pabzvH1sKxjGZ3YpEO" version="12.4.9" type="github" pages="5">
  <diagram id="C5RBs43oDa-KdzZeNtuy" name="ops">
    <mxGraphModel dx="854" dy="1644" grid="1" gridSize="10" guides="1" tooltips="1" connect="1" arrows="1" fold="1" page="1" pageScale="1" pageWidth="827" pageHeight="1169" math="0" shadow="0">
      <root>
        <mxCell id="WIyWlLk6GJQsqaUBKTNV-0"/>
        <mxCell id="WIyWlLk6GJQsqaUBKTNV-1" parent="WIyWlLk6GJQsqaUBKTNV-0"/>
        <mxCell id="zkfFHV4jXpPFQw0GAbJ--56" value="Order" style="swimlane;fontStyle=1;childLayout=stackLayout;horizontal=1;startSize=26;horizontalStack=0;resizeParent=1;resizeLast=0;collapsible=1;marginBottom=0;rounded=0;shadow=0;strokeWidth=1;" parent="WIyWlLk6GJQsqaUBKTNV-1" vertex="1">
          <mxGeometry x="590" y="70" width="160" height="156" as="geometry">
            <mxRectangle x="260" y="80" width="160" height="26" as="alternateBounds"/>
          </mxGeometry>
        </mxCell>
        <mxCell id="zkfFHV4jXpPFQw0GAbJ--57" value="Id" style="shape=partialRectangle;top=0;left=0;right=0;bottom=1;align=left;verticalAlign=top;fillColor=none;spacingLeft=40;spacingRight=4;overflow=hidden;rotatable=0;points=[[0,0.5],[1,0.5]];portConstraint=eastwest;dropTarget=0;rounded=0;shadow=0;strokeWidth=1;fontStyle=4" parent="zkfFHV4jXpPFQw0GAbJ--56" vertex="1">
          <mxGeometry y="26" width="160" height="26" as="geometry"/>
        </mxCell>
        <mxCell id="zkfFHV4jXpPFQw0GAbJ--58" value="PK" style="shape=partialRectangle;top=0;left=0;bottom=0;fillColor=none;align=left;verticalAlign=top;spacingLeft=4;spacingRight=4;overflow=hidden;rotatable=0;points=[];portConstraint=eastwest;part=1;" parent="zkfFHV4jXpPFQw0GAbJ--57" vertex="1" connectable="0">
          <mxGeometry width="36" height="26" as="geometry"/>
        </mxCell>
        <mxCell id="zkfFHV4jXpPFQw0GAbJ--59" value="clientId" style="shape=partialRectangle;top=0;left=0;right=0;bottom=0;align=left;verticalAlign=top;fillColor=none;spacingLeft=40;spacingRight=4;overflow=hidden;rotatable=0;points=[[0,0.5],[1,0.5]];portConstraint=eastwest;dropTarget=0;rounded=0;shadow=0;strokeWidth=1;" parent="zkfFHV4jXpPFQw0GAbJ--56" vertex="1">
          <mxGeometry y="52" width="160" height="26" as="geometry"/>
        </mxCell>
        <mxCell id="zkfFHV4jXpPFQw0GAbJ--60" value="FK1" style="shape=partialRectangle;top=0;left=0;bottom=0;fillColor=none;align=left;verticalAlign=top;spacingLeft=4;spacingRight=4;overflow=hidden;rotatable=0;points=[];portConstraint=eastwest;part=1;" parent="zkfFHV4jXpPFQw0GAbJ--59" vertex="1" connectable="0">
          <mxGeometry width="36" height="26" as="geometry"/>
        </mxCell>
        <mxCell id="uSnbRCclRFykm9zJaBzx-0" value="userId" style="shape=partialRectangle;top=0;left=0;right=0;bottom=0;align=left;verticalAlign=top;fillColor=none;spacingLeft=40;spacingRight=4;overflow=hidden;rotatable=0;points=[[0,0.5],[1,0.5]];portConstraint=eastwest;dropTarget=0;rounded=0;shadow=0;strokeWidth=1;" parent="zkfFHV4jXpPFQw0GAbJ--56" vertex="1">
          <mxGeometry y="78" width="160" height="26" as="geometry"/>
        </mxCell>
        <mxCell id="uSnbRCclRFykm9zJaBzx-1" value="FK1" style="shape=partialRectangle;top=0;left=0;bottom=0;fillColor=none;align=left;verticalAlign=top;spacingLeft=4;spacingRight=4;overflow=hidden;rotatable=0;points=[];portConstraint=eastwest;part=1;" parent="uSnbRCclRFykm9zJaBzx-0" vertex="1" connectable="0">
          <mxGeometry width="36" height="26" as="geometry"/>
        </mxCell>
        <mxCell id="4fiELDmcAO46Hj7w_OrO-37" value="cartId" style="shape=partialRectangle;top=0;left=0;right=0;bottom=0;align=left;verticalAlign=top;fillColor=none;spacingLeft=40;spacingRight=4;overflow=hidden;rotatable=0;points=[[0,0.5],[1,0.5]];portConstraint=eastwest;dropTarget=0;rounded=0;shadow=0;strokeWidth=1;" parent="zkfFHV4jXpPFQw0GAbJ--56" vertex="1">
          <mxGeometry y="104" width="160" height="26" as="geometry"/>
        </mxCell>
        <mxCell id="4fiELDmcAO46Hj7w_OrO-38" value="FK1" style="shape=partialRectangle;top=0;left=0;bottom=0;fillColor=none;align=left;verticalAlign=top;spacingLeft=4;spacingRight=4;overflow=hidden;rotatable=0;points=[];portConstraint=eastwest;part=1;" parent="4fiELDmcAO46Hj7w_OrO-37" vertex="1" connectable="0">
          <mxGeometry width="36" height="26" as="geometry"/>
        </mxCell>
        <mxCell id="zkfFHV4jXpPFQw0GAbJ--61" value="Date" style="shape=partialRectangle;top=0;left=0;right=0;bottom=0;align=left;verticalAlign=top;fillColor=none;spacingLeft=40;spacingRight=4;overflow=hidden;rotatable=0;points=[[0,0.5],[1,0.5]];portConstraint=eastwest;dropTarget=0;rounded=0;shadow=0;strokeWidth=1;" parent="zkfFHV4jXpPFQw0GAbJ--56" vertex="1">
          <mxGeometry y="130" width="160" height="26" as="geometry"/>
        </mxCell>
        <mxCell id="zkfFHV4jXpPFQw0GAbJ--62" value="" style="shape=partialRectangle;top=0;left=0;bottom=0;fillColor=none;align=left;verticalAlign=top;spacingLeft=4;spacingRight=4;overflow=hidden;rotatable=0;points=[];portConstraint=eastwest;part=1;" parent="zkfFHV4jXpPFQw0GAbJ--61" vertex="1" connectable="0">
          <mxGeometry width="36" height="26" as="geometry"/>
        </mxCell>
        <mxCell id="zkfFHV4jXpPFQw0GAbJ--64" value="Shipment" style="swimlane;fontStyle=1;childLayout=stackLayout;horizontal=1;startSize=26;horizontalStack=0;resizeParent=1;resizeLast=0;collapsible=1;marginBottom=0;rounded=0;shadow=0;strokeWidth=1;" parent="WIyWlLk6GJQsqaUBKTNV-1" vertex="1">
          <mxGeometry x="870" y="-18" width="160" height="104" as="geometry">
            <mxRectangle x="260" y="270" width="160" height="26" as="alternateBounds"/>
          </mxGeometry>
        </mxCell>
        <mxCell id="zkfFHV4jXpPFQw0GAbJ--65" value="ShipmentId" style="shape=partialRectangle;top=0;left=0;right=0;bottom=1;align=left;verticalAlign=top;fillColor=none;spacingLeft=40;spacingRight=4;overflow=hidden;rotatable=0;points=[[0,0.5],[1,0.5]];portConstraint=eastwest;dropTarget=0;rounded=0;shadow=0;strokeWidth=1;fontStyle=4" parent="zkfFHV4jXpPFQw0GAbJ--64" vertex="1">
          <mxGeometry y="26" width="160" height="26" as="geometry"/>
        </mxCell>
        <mxCell id="zkfFHV4jXpPFQw0GAbJ--66" value="PK" style="shape=partialRectangle;top=0;left=0;bottom=0;fillColor=none;align=left;verticalAlign=top;spacingLeft=4;spacingRight=4;overflow=hidden;rotatable=0;points=[];portConstraint=eastwest;part=1;" parent="zkfFHV4jXpPFQw0GAbJ--65" vertex="1" connectable="0">
          <mxGeometry width="36" height="26" as="geometry"/>
        </mxCell>
        <mxCell id="zkfFHV4jXpPFQw0GAbJ--67" value="OrderId" style="shape=partialRectangle;top=0;left=0;right=0;bottom=0;align=left;verticalAlign=top;fillColor=none;spacingLeft=40;spacingRight=4;overflow=hidden;rotatable=0;points=[[0,0.5],[1,0.5]];portConstraint=eastwest;dropTarget=0;rounded=0;shadow=0;strokeWidth=1;" parent="zkfFHV4jXpPFQw0GAbJ--64" vertex="1">
          <mxGeometry y="52" width="160" height="26" as="geometry"/>
        </mxCell>
        <mxCell id="zkfFHV4jXpPFQw0GAbJ--68" value="FK1" style="shape=partialRectangle;top=0;left=0;bottom=0;fillColor=none;align=left;verticalAlign=top;spacingLeft=4;spacingRight=4;overflow=hidden;rotatable=0;points=[];portConstraint=eastwest;part=1;" parent="zkfFHV4jXpPFQw0GAbJ--67" vertex="1" connectable="0">
          <mxGeometry width="36" height="26" as="geometry"/>
        </mxCell>
        <mxCell id="zkfFHV4jXpPFQw0GAbJ--69" value="Date" style="shape=partialRectangle;top=0;left=0;right=0;bottom=0;align=left;verticalAlign=top;fillColor=none;spacingLeft=40;spacingRight=4;overflow=hidden;rotatable=0;points=[[0,0.5],[1,0.5]];portConstraint=eastwest;dropTarget=0;rounded=0;shadow=0;strokeWidth=1;" parent="zkfFHV4jXpPFQw0GAbJ--64" vertex="1">
          <mxGeometry y="78" width="160" height="26" as="geometry"/>
        </mxCell>
        <mxCell id="zkfFHV4jXpPFQw0GAbJ--70" value="" style="shape=partialRectangle;top=0;left=0;bottom=0;fillColor=none;align=left;verticalAlign=top;spacingLeft=4;spacingRight=4;overflow=hidden;rotatable=0;points=[];portConstraint=eastwest;part=1;" parent="zkfFHV4jXpPFQw0GAbJ--69" vertex="1" connectable="0">
          <mxGeometry width="36" height="26" as="geometry"/>
        </mxCell>
        <mxCell id="zkfFHV4jXpPFQw0GAbJ--71" value="" style="edgeStyle=orthogonalEdgeStyle;endArrow=ERzeroToMany;startArrow=ERmandOne;shadow=0;strokeWidth=1;endSize=8;startSize=8;" parent="WIyWlLk6GJQsqaUBKTNV-1" source="zkfFHV4jXpPFQw0GAbJ--56" target="zkfFHV4jXpPFQw0GAbJ--64" edge="1">
          <mxGeometry width="100" height="100" relative="1" as="geometry">
            <mxPoint x="410" y="182" as="sourcePoint"/>
            <mxPoint x="330" y="169" as="targetPoint"/>
            <Array as="points"/>
          </mxGeometry>
        </mxCell>
        <mxCell id="m11ruYbN7Bz_lJd7NWIb-17" value="ProductDetails" style="swimlane;fontStyle=1;childLayout=stackLayout;horizontal=1;startSize=26;horizontalStack=0;resizeParent=1;resizeLast=0;collapsible=1;marginBottom=0;rounded=0;shadow=0;strokeWidth=1;" parent="WIyWlLk6GJQsqaUBKTNV-1" vertex="1">
          <mxGeometry x="70" y="670" width="160" height="468" as="geometry">
            <mxRectangle x="20" y="80" width="160" height="26" as="alternateBounds"/>
          </mxGeometry>
        </mxCell>
        <mxCell id="m11ruYbN7Bz_lJd7NWIb-18" value="Id" style="shape=partialRectangle;top=0;left=0;right=0;bottom=1;align=left;verticalAlign=top;fillColor=none;spacingLeft=40;spacingRight=4;overflow=hidden;rotatable=0;points=[[0,0.5],[1,0.5]];portConstraint=eastwest;dropTarget=0;rounded=0;shadow=0;strokeWidth=1;fontStyle=4" parent="m11ruYbN7Bz_lJd7NWIb-17" vertex="1">
          <mxGeometry y="26" width="160" height="26" as="geometry"/>
        </mxCell>
        <mxCell id="m11ruYbN7Bz_lJd7NWIb-19" value="PK" style="shape=partialRectangle;top=0;left=0;bottom=0;fillColor=none;align=left;verticalAlign=top;spacingLeft=4;spacingRight=4;overflow=hidden;rotatable=0;points=[];portConstraint=eastwest;part=1;" parent="m11ruYbN7Bz_lJd7NWIb-18" vertex="1" connectable="0">
          <mxGeometry width="36" height="26" as="geometry"/>
        </mxCell>
        <mxCell id="m11ruYbN7Bz_lJd7NWIb-20" value="sku" style="shape=partialRectangle;top=0;left=0;right=0;bottom=0;align=left;verticalAlign=top;fillColor=none;spacingLeft=40;spacingRight=4;overflow=hidden;rotatable=0;points=[[0,0.5],[1,0.5]];portConstraint=eastwest;dropTarget=0;rounded=0;shadow=0;strokeWidth=1;" parent="m11ruYbN7Bz_lJd7NWIb-17" vertex="1">
          <mxGeometry y="52" width="160" height="26" as="geometry"/>
        </mxCell>
        <mxCell id="m11ruYbN7Bz_lJd7NWIb-21" value="UK" style="shape=partialRectangle;top=0;left=0;bottom=0;fillColor=none;align=left;verticalAlign=top;spacingLeft=4;spacingRight=4;overflow=hidden;rotatable=0;points=[];portConstraint=eastwest;part=1;" parent="m11ruYbN7Bz_lJd7NWIb-20" vertex="1" connectable="0">
          <mxGeometry width="36" height="26" as="geometry"/>
        </mxCell>
        <mxCell id="m11ruYbN7Bz_lJd7NWIb-23" value="productId" style="shape=partialRectangle;top=0;left=0;right=0;bottom=0;align=left;verticalAlign=top;fillColor=none;spacingLeft=40;spacingRight=4;overflow=hidden;rotatable=0;points=[[0,0.5],[1,0.5]];portConstraint=eastwest;dropTarget=0;rounded=0;shadow=0;strokeWidth=1;" parent="m11ruYbN7Bz_lJd7NWIb-17" vertex="1">
          <mxGeometry y="78" width="160" height="26" as="geometry"/>
        </mxCell>
        <mxCell id="m11ruYbN7Bz_lJd7NWIb-24" value="FK" style="shape=partialRectangle;top=0;left=0;bottom=0;fillColor=none;align=left;verticalAlign=top;spacingLeft=4;spacingRight=4;overflow=hidden;rotatable=0;points=[];portConstraint=eastwest;part=1;" parent="m11ruYbN7Bz_lJd7NWIb-23" vertex="1" connectable="0">
          <mxGeometry width="36" height="26" as="geometry"/>
        </mxCell>
        <mxCell id="m11ruYbN7Bz_lJd7NWIb-36" value="parentId" style="shape=partialRectangle;top=0;left=0;right=0;bottom=0;align=left;verticalAlign=top;fillColor=none;spacingLeft=40;spacingRight=4;overflow=hidden;rotatable=0;points=[[0,0.5],[1,0.5]];portConstraint=eastwest;dropTarget=0;rounded=0;shadow=0;strokeWidth=1;" parent="m11ruYbN7Bz_lJd7NWIb-17" vertex="1">
          <mxGeometry y="104" width="160" height="26" as="geometry"/>
        </mxCell>
        <mxCell id="m11ruYbN7Bz_lJd7NWIb-37" value="" style="shape=partialRectangle;top=0;left=0;bottom=0;fillColor=none;align=left;verticalAlign=top;spacingLeft=4;spacingRight=4;overflow=hidden;rotatable=0;points=[];portConstraint=eastwest;part=1;" parent="m11ruYbN7Bz_lJd7NWIb-36" vertex="1" connectable="0">
          <mxGeometry width="36" height="26" as="geometry"/>
        </mxCell>
        <mxCell id="m11ruYbN7Bz_lJd7NWIb-40" value="name" style="shape=partialRectangle;top=0;left=0;right=0;bottom=0;align=left;verticalAlign=top;fillColor=none;spacingLeft=40;spacingRight=4;overflow=hidden;rotatable=0;points=[[0,0.5],[1,0.5]];portConstraint=eastwest;dropTarget=0;rounded=0;shadow=0;strokeWidth=1;" parent="m11ruYbN7Bz_lJd7NWIb-17" vertex="1">
          <mxGeometry y="130" width="160" height="26" as="geometry"/>
        </mxCell>
        <mxCell id="m11ruYbN7Bz_lJd7NWIb-41" value="" style="shape=partialRectangle;top=0;left=0;bottom=0;fillColor=none;align=left;verticalAlign=top;spacingLeft=4;spacingRight=4;overflow=hidden;rotatable=0;points=[];portConstraint=eastwest;part=1;" parent="m11ruYbN7Bz_lJd7NWIb-40" vertex="1" connectable="0">
          <mxGeometry width="36" height="26" as="geometry"/>
        </mxCell>
        <mxCell id="m11ruYbN7Bz_lJd7NWIb-38" value="title&#xa;" style="shape=partialRectangle;top=0;left=0;right=0;bottom=0;align=left;verticalAlign=top;fillColor=none;spacingLeft=40;spacingRight=4;overflow=hidden;rotatable=0;points=[[0,0.5],[1,0.5]];portConstraint=eastwest;dropTarget=0;rounded=0;shadow=0;strokeWidth=1;" parent="m11ruYbN7Bz_lJd7NWIb-17" vertex="1">
          <mxGeometry y="156" width="160" height="26" as="geometry"/>
        </mxCell>
        <mxCell id="m11ruYbN7Bz_lJd7NWIb-39" value="" style="shape=partialRectangle;top=0;left=0;bottom=0;fillColor=none;align=left;verticalAlign=top;spacingLeft=4;spacingRight=4;overflow=hidden;rotatable=0;points=[];portConstraint=eastwest;part=1;" parent="m11ruYbN7Bz_lJd7NWIb-38" vertex="1" connectable="0">
          <mxGeometry width="36" height="26" as="geometry"/>
        </mxCell>
        <mxCell id="m11ruYbN7Bz_lJd7NWIb-42" value="description" style="shape=partialRectangle;top=0;left=0;right=0;bottom=0;align=left;verticalAlign=top;fillColor=none;spacingLeft=40;spacingRight=4;overflow=hidden;rotatable=0;points=[[0,0.5],[1,0.5]];portConstraint=eastwest;dropTarget=0;rounded=0;shadow=0;strokeWidth=1;" parent="m11ruYbN7Bz_lJd7NWIb-17" vertex="1">
          <mxGeometry y="182" width="160" height="26" as="geometry"/>
        </mxCell>
        <mxCell id="m11ruYbN7Bz_lJd7NWIb-43" value="" style="shape=partialRectangle;top=0;left=0;bottom=0;fillColor=none;align=left;verticalAlign=top;spacingLeft=4;spacingRight=4;overflow=hidden;rotatable=0;points=[];portConstraint=eastwest;part=1;" parent="m11ruYbN7Bz_lJd7NWIb-42" vertex="1" connectable="0">
          <mxGeometry width="36" height="26" as="geometry"/>
        </mxCell>
        <mxCell id="m11ruYbN7Bz_lJd7NWIb-48" value="units" style="shape=partialRectangle;top=0;left=0;right=0;bottom=0;align=left;verticalAlign=top;fillColor=none;spacingLeft=40;spacingRight=4;overflow=hidden;rotatable=0;points=[[0,0.5],[1,0.5]];portConstraint=eastwest;dropTarget=0;rounded=0;shadow=0;strokeWidth=1;" parent="m11ruYbN7Bz_lJd7NWIb-17" vertex="1">
          <mxGeometry y="208" width="160" height="26" as="geometry"/>
        </mxCell>
        <mxCell id="m11ruYbN7Bz_lJd7NWIb-49" value="" style="shape=partialRectangle;top=0;left=0;bottom=0;fillColor=none;align=left;verticalAlign=top;spacingLeft=4;spacingRight=4;overflow=hidden;rotatable=0;points=[];portConstraint=eastwest;part=1;" parent="m11ruYbN7Bz_lJd7NWIb-48" vertex="1" connectable="0">
          <mxGeometry width="36" height="26" as="geometry"/>
        </mxCell>
        <mxCell id="m11ruYbN7Bz_lJd7NWIb-50" value="manufacturerId" style="shape=partialRectangle;top=0;left=0;right=0;bottom=0;align=left;verticalAlign=top;fillColor=none;spacingLeft=40;spacingRight=4;overflow=hidden;rotatable=0;points=[[0,0.5],[1,0.5]];portConstraint=eastwest;dropTarget=0;rounded=0;shadow=0;strokeWidth=1;" parent="m11ruYbN7Bz_lJd7NWIb-17" vertex="1">
          <mxGeometry y="234" width="160" height="26" as="geometry"/>
        </mxCell>
        <mxCell id="m11ruYbN7Bz_lJd7NWIb-51" value="" style="shape=partialRectangle;top=0;left=0;bottom=0;fillColor=none;align=left;verticalAlign=top;spacingLeft=4;spacingRight=4;overflow=hidden;rotatable=0;points=[];portConstraint=eastwest;part=1;" parent="m11ruYbN7Bz_lJd7NWIb-50" vertex="1" connectable="0">
          <mxGeometry width="36" height="26" as="geometry"/>
        </mxCell>
        <mxCell id="m11ruYbN7Bz_lJd7NWIb-82" value="thumbnailPath" style="shape=partialRectangle;top=0;left=0;right=0;bottom=0;align=left;verticalAlign=top;fillColor=none;spacingLeft=40;spacingRight=4;overflow=hidden;rotatable=0;points=[[0,0.5],[1,0.5]];portConstraint=eastwest;dropTarget=0;rounded=0;shadow=0;strokeWidth=1;" parent="m11ruYbN7Bz_lJd7NWIb-17" vertex="1">
          <mxGeometry y="260" width="160" height="26" as="geometry"/>
        </mxCell>
        <mxCell id="m11ruYbN7Bz_lJd7NWIb-83" value="" style="shape=partialRectangle;top=0;left=0;bottom=0;fillColor=none;align=left;verticalAlign=top;spacingLeft=4;spacingRight=4;overflow=hidden;rotatable=0;points=[];portConstraint=eastwest;part=1;" parent="m11ruYbN7Bz_lJd7NWIb-82" vertex="1" connectable="0">
          <mxGeometry width="36" height="26" as="geometry"/>
        </mxCell>
        <mxCell id="m11ruYbN7Bz_lJd7NWIb-86" value="featured" style="shape=partialRectangle;top=0;left=0;right=0;bottom=0;align=left;verticalAlign=top;fillColor=none;spacingLeft=40;spacingRight=4;overflow=hidden;rotatable=0;points=[[0,0.5],[1,0.5]];portConstraint=eastwest;dropTarget=0;rounded=0;shadow=0;strokeWidth=1;" parent="m11ruYbN7Bz_lJd7NWIb-17" vertex="1">
          <mxGeometry y="286" width="160" height="26" as="geometry"/>
        </mxCell>
        <mxCell id="m11ruYbN7Bz_lJd7NWIb-87" value="" style="shape=partialRectangle;top=0;left=0;bottom=0;fillColor=none;align=left;verticalAlign=top;spacingLeft=4;spacingRight=4;overflow=hidden;rotatable=0;points=[];portConstraint=eastwest;part=1;" parent="m11ruYbN7Bz_lJd7NWIb-86" vertex="1" connectable="0">
          <mxGeometry width="36" height="26" as="geometry"/>
        </mxCell>
        <mxCell id="m11ruYbN7Bz_lJd7NWIb-84" value="visibleIndividually" style="shape=partialRectangle;top=0;left=0;right=0;bottom=0;align=left;verticalAlign=top;fillColor=none;spacingLeft=40;spacingRight=4;overflow=hidden;rotatable=0;points=[[0,0.5],[1,0.5]];portConstraint=eastwest;dropTarget=0;rounded=0;shadow=0;strokeWidth=1;" parent="m11ruYbN7Bz_lJd7NWIb-17" vertex="1">
          <mxGeometry y="312" width="160" height="26" as="geometry"/>
        </mxCell>
        <mxCell id="m11ruYbN7Bz_lJd7NWIb-85" value="" style="shape=partialRectangle;top=0;left=0;bottom=0;fillColor=none;align=left;verticalAlign=top;spacingLeft=4;spacingRight=4;overflow=hidden;rotatable=0;points=[];portConstraint=eastwest;part=1;" parent="m11ruYbN7Bz_lJd7NWIb-84" vertex="1" connectable="0">
          <mxGeometry width="36" height="26" as="geometry"/>
        </mxCell>
        <mxCell id="m11ruYbN7Bz_lJd7NWIb-44" value="mrp" style="shape=partialRectangle;top=0;left=0;right=0;bottom=0;align=left;verticalAlign=top;fillColor=none;spacingLeft=40;spacingRight=4;overflow=hidden;rotatable=0;points=[[0,0.5],[1,0.5]];portConstraint=eastwest;dropTarget=0;rounded=0;shadow=0;strokeWidth=1;" parent="m11ruYbN7Bz_lJd7NWIb-17" vertex="1">
          <mxGeometry y="338" width="160" height="26" as="geometry"/>
        </mxCell>
        <mxCell id="m11ruYbN7Bz_lJd7NWIb-45" value="" style="shape=partialRectangle;top=0;left=0;bottom=0;fillColor=none;align=left;verticalAlign=top;spacingLeft=4;spacingRight=4;overflow=hidden;rotatable=0;points=[];portConstraint=eastwest;part=1;" parent="m11ruYbN7Bz_lJd7NWIb-44" vertex="1" connectable="0">
          <mxGeometry width="36" height="26" as="geometry"/>
        </mxCell>
        <mxCell id="m11ruYbN7Bz_lJd7NWIb-25" value="createdAt" style="shape=partialRectangle;top=0;left=0;right=0;bottom=0;align=left;verticalAlign=top;fillColor=none;spacingLeft=40;spacingRight=4;overflow=hidden;rotatable=0;points=[[0,0.5],[1,0.5]];portConstraint=eastwest;dropTarget=0;rounded=0;shadow=0;strokeWidth=1;" parent="m11ruYbN7Bz_lJd7NWIb-17" vertex="1">
          <mxGeometry y="364" width="160" height="26" as="geometry"/>
        </mxCell>
        <mxCell id="m11ruYbN7Bz_lJd7NWIb-26" value="" style="shape=partialRectangle;top=0;left=0;bottom=0;fillColor=none;align=left;verticalAlign=top;spacingLeft=4;spacingRight=4;overflow=hidden;rotatable=0;points=[];portConstraint=eastwest;part=1;" parent="m11ruYbN7Bz_lJd7NWIb-25" vertex="1" connectable="0">
          <mxGeometry width="36" height="26" as="geometry"/>
        </mxCell>
        <mxCell id="m11ruYbN7Bz_lJd7NWIb-27" value="createdBy" style="shape=partialRectangle;top=0;left=0;right=0;bottom=0;align=left;verticalAlign=top;fillColor=none;spacingLeft=40;spacingRight=4;overflow=hidden;rotatable=0;points=[[0,0.5],[1,0.5]];portConstraint=eastwest;dropTarget=0;rounded=0;shadow=0;strokeWidth=1;" parent="m11ruYbN7Bz_lJd7NWIb-17" vertex="1">
          <mxGeometry y="390" width="160" height="26" as="geometry"/>
        </mxCell>
        <mxCell id="m11ruYbN7Bz_lJd7NWIb-28" value="" style="shape=partialRectangle;top=0;left=0;bottom=0;fillColor=none;align=left;verticalAlign=top;spacingLeft=4;spacingRight=4;overflow=hidden;rotatable=0;points=[];portConstraint=eastwest;part=1;" parent="m11ruYbN7Bz_lJd7NWIb-27" vertex="1" connectable="0">
          <mxGeometry width="36" height="26" as="geometry"/>
        </mxCell>
        <mxCell id="m11ruYbN7Bz_lJd7NWIb-29" value="deletedAt" style="shape=partialRectangle;top=0;left=0;right=0;bottom=0;align=left;verticalAlign=top;fillColor=none;spacingLeft=40;spacingRight=4;overflow=hidden;rotatable=0;points=[[0,0.5],[1,0.5]];portConstraint=eastwest;dropTarget=0;rounded=0;shadow=0;strokeWidth=1;" parent="m11ruYbN7Bz_lJd7NWIb-17" vertex="1">
          <mxGeometry y="416" width="160" height="26" as="geometry"/>
        </mxCell>
        <mxCell id="m11ruYbN7Bz_lJd7NWIb-30" value="" style="shape=partialRectangle;top=0;left=0;bottom=0;fillColor=none;align=left;verticalAlign=top;spacingLeft=4;spacingRight=4;overflow=hidden;rotatable=0;points=[];portConstraint=eastwest;part=1;" parent="m11ruYbN7Bz_lJd7NWIb-29" vertex="1" connectable="0">
          <mxGeometry width="36" height="26" as="geometry"/>
        </mxCell>
        <mxCell id="m11ruYbN7Bz_lJd7NWIb-31" value="deletedBy" style="shape=partialRectangle;top=0;left=0;right=0;bottom=0;align=left;verticalAlign=top;fillColor=none;spacingLeft=40;spacingRight=4;overflow=hidden;rotatable=0;points=[[0,0.5],[1,0.5]];portConstraint=eastwest;dropTarget=0;rounded=0;shadow=0;strokeWidth=1;" parent="m11ruYbN7Bz_lJd7NWIb-17" vertex="1">
          <mxGeometry y="442" width="160" height="26" as="geometry"/>
        </mxCell>
        <mxCell id="m11ruYbN7Bz_lJd7NWIb-32" value="" style="shape=partialRectangle;top=0;left=0;bottom=0;fillColor=none;align=left;verticalAlign=top;spacingLeft=4;spacingRight=4;overflow=hidden;rotatable=0;points=[];portConstraint=eastwest;part=1;" parent="m11ruYbN7Bz_lJd7NWIb-31" vertex="1" connectable="0">
          <mxGeometry width="36" height="26" as="geometry"/>
        </mxCell>
        <mxCell id="m11ruYbN7Bz_lJd7NWIb-35" style="edgeStyle=orthogonalEdgeStyle;rounded=0;orthogonalLoop=1;jettySize=auto;html=1;exitX=0;exitY=0.5;exitDx=0;exitDy=0;entryX=0;entryY=0.5;entryDx=0;entryDy=0;" parent="WIyWlLk6GJQsqaUBKTNV-1" source="m11ruYbN7Bz_lJd7NWIb-23" target="m11ruYbN7Bz_lJd7NWIb-1" edge="1">
          <mxGeometry relative="1" as="geometry"/>
        </mxCell>
        <mxCell id="m11ruYbN7Bz_lJd7NWIb-52" value="Manufacturers" style="swimlane;fontStyle=1;childLayout=stackLayout;horizontal=1;startSize=26;horizontalStack=0;resizeParent=1;resizeLast=0;collapsible=1;marginBottom=0;rounded=0;shadow=0;strokeWidth=1;" parent="WIyWlLk6GJQsqaUBKTNV-1" vertex="1">
          <mxGeometry x="80" y="1210" width="160" height="260" as="geometry">
            <mxRectangle x="20" y="80" width="160" height="26" as="alternateBounds"/>
          </mxGeometry>
        </mxCell>
        <mxCell id="m11ruYbN7Bz_lJd7NWIb-53" value="Id" style="shape=partialRectangle;top=0;left=0;right=0;bottom=1;align=left;verticalAlign=top;fillColor=none;spacingLeft=40;spacingRight=4;overflow=hidden;rotatable=0;points=[[0,0.5],[1,0.5]];portConstraint=eastwest;dropTarget=0;rounded=0;shadow=0;strokeWidth=1;fontStyle=4" parent="m11ruYbN7Bz_lJd7NWIb-52" vertex="1">
          <mxGeometry y="26" width="160" height="26" as="geometry"/>
        </mxCell>
        <mxCell id="m11ruYbN7Bz_lJd7NWIb-54" value="PK" style="shape=partialRectangle;top=0;left=0;bottom=0;fillColor=none;align=left;verticalAlign=top;spacingLeft=4;spacingRight=4;overflow=hidden;rotatable=0;points=[];portConstraint=eastwest;part=1;" parent="m11ruYbN7Bz_lJd7NWIb-53" vertex="1" connectable="0">
          <mxGeometry width="36" height="26" as="geometry"/>
        </mxCell>
        <mxCell id="m11ruYbN7Bz_lJd7NWIb-61" value="name" style="shape=partialRectangle;top=0;left=0;right=0;bottom=0;align=left;verticalAlign=top;fillColor=none;spacingLeft=40;spacingRight=4;overflow=hidden;rotatable=0;points=[[0,0.5],[1,0.5]];portConstraint=eastwest;dropTarget=0;rounded=0;shadow=0;strokeWidth=1;" parent="m11ruYbN7Bz_lJd7NWIb-52" vertex="1">
          <mxGeometry y="52" width="160" height="26" as="geometry"/>
        </mxCell>
        <mxCell id="m11ruYbN7Bz_lJd7NWIb-62" value="" style="shape=partialRectangle;top=0;left=0;bottom=0;fillColor=none;align=left;verticalAlign=top;spacingLeft=4;spacingRight=4;overflow=hidden;rotatable=0;points=[];portConstraint=eastwest;part=1;" parent="m11ruYbN7Bz_lJd7NWIb-61" vertex="1" connectable="0">
          <mxGeometry width="36" height="26" as="geometry"/>
        </mxCell>
        <mxCell id="m11ruYbN7Bz_lJd7NWIb-63" value="website" style="shape=partialRectangle;top=0;left=0;right=0;bottom=0;align=left;verticalAlign=top;fillColor=none;spacingLeft=40;spacingRight=4;overflow=hidden;rotatable=0;points=[[0,0.5],[1,0.5]];portConstraint=eastwest;dropTarget=0;rounded=0;shadow=0;strokeWidth=1;" parent="m11ruYbN7Bz_lJd7NWIb-52" vertex="1">
          <mxGeometry y="78" width="160" height="26" as="geometry"/>
        </mxCell>
        <mxCell id="m11ruYbN7Bz_lJd7NWIb-64" value="" style="shape=partialRectangle;top=0;left=0;bottom=0;fillColor=none;align=left;verticalAlign=top;spacingLeft=4;spacingRight=4;overflow=hidden;rotatable=0;points=[];portConstraint=eastwest;part=1;" parent="m11ruYbN7Bz_lJd7NWIb-63" vertex="1" connectable="0">
          <mxGeometry width="36" height="26" as="geometry"/>
        </mxCell>
        <mxCell id="m11ruYbN7Bz_lJd7NWIb-65" value="description" style="shape=partialRectangle;top=0;left=0;right=0;bottom=0;align=left;verticalAlign=top;fillColor=none;spacingLeft=40;spacingRight=4;overflow=hidden;rotatable=0;points=[[0,0.5],[1,0.5]];portConstraint=eastwest;dropTarget=0;rounded=0;shadow=0;strokeWidth=1;" parent="m11ruYbN7Bz_lJd7NWIb-52" vertex="1">
          <mxGeometry y="104" width="160" height="26" as="geometry"/>
        </mxCell>
        <mxCell id="m11ruYbN7Bz_lJd7NWIb-66" value="" style="shape=partialRectangle;top=0;left=0;bottom=0;fillColor=none;align=left;verticalAlign=top;spacingLeft=4;spacingRight=4;overflow=hidden;rotatable=0;points=[];portConstraint=eastwest;part=1;" parent="m11ruYbN7Bz_lJd7NWIb-65" vertex="1" connectable="0">
          <mxGeometry width="36" height="26" as="geometry"/>
        </mxCell>
        <mxCell id="m11ruYbN7Bz_lJd7NWIb-69" value="manufacturerId" style="shape=partialRectangle;top=0;left=0;right=0;bottom=0;align=left;verticalAlign=top;fillColor=none;spacingLeft=40;spacingRight=4;overflow=hidden;rotatable=0;points=[[0,0.5],[1,0.5]];portConstraint=eastwest;dropTarget=0;rounded=0;shadow=0;strokeWidth=1;" parent="m11ruYbN7Bz_lJd7NWIb-52" vertex="1">
          <mxGeometry y="130" width="160" height="26" as="geometry"/>
        </mxCell>
        <mxCell id="m11ruYbN7Bz_lJd7NWIb-70" value="" style="shape=partialRectangle;top=0;left=0;bottom=0;fillColor=none;align=left;verticalAlign=top;spacingLeft=4;spacingRight=4;overflow=hidden;rotatable=0;points=[];portConstraint=eastwest;part=1;" parent="m11ruYbN7Bz_lJd7NWIb-69" vertex="1" connectable="0">
          <mxGeometry width="36" height="26" as="geometry"/>
        </mxCell>
        <mxCell id="m11ruYbN7Bz_lJd7NWIb-73" value="createdAt" style="shape=partialRectangle;top=0;left=0;right=0;bottom=0;align=left;verticalAlign=top;fillColor=none;spacingLeft=40;spacingRight=4;overflow=hidden;rotatable=0;points=[[0,0.5],[1,0.5]];portConstraint=eastwest;dropTarget=0;rounded=0;shadow=0;strokeWidth=1;" parent="m11ruYbN7Bz_lJd7NWIb-52" vertex="1">
          <mxGeometry y="156" width="160" height="26" as="geometry"/>
        </mxCell>
        <mxCell id="m11ruYbN7Bz_lJd7NWIb-74" value="" style="shape=partialRectangle;top=0;left=0;bottom=0;fillColor=none;align=left;verticalAlign=top;spacingLeft=4;spacingRight=4;overflow=hidden;rotatable=0;points=[];portConstraint=eastwest;part=1;" parent="m11ruYbN7Bz_lJd7NWIb-73" vertex="1" connectable="0">
          <mxGeometry width="36" height="26" as="geometry"/>
        </mxCell>
        <mxCell id="m11ruYbN7Bz_lJd7NWIb-75" value="createdBy" style="shape=partialRectangle;top=0;left=0;right=0;bottom=0;align=left;verticalAlign=top;fillColor=none;spacingLeft=40;spacingRight=4;overflow=hidden;rotatable=0;points=[[0,0.5],[1,0.5]];portConstraint=eastwest;dropTarget=0;rounded=0;shadow=0;strokeWidth=1;" parent="m11ruYbN7Bz_lJd7NWIb-52" vertex="1">
          <mxGeometry y="182" width="160" height="26" as="geometry"/>
        </mxCell>
        <mxCell id="m11ruYbN7Bz_lJd7NWIb-76" value="" style="shape=partialRectangle;top=0;left=0;bottom=0;fillColor=none;align=left;verticalAlign=top;spacingLeft=4;spacingRight=4;overflow=hidden;rotatable=0;points=[];portConstraint=eastwest;part=1;" parent="m11ruYbN7Bz_lJd7NWIb-75" vertex="1" connectable="0">
          <mxGeometry width="36" height="26" as="geometry"/>
        </mxCell>
        <mxCell id="m11ruYbN7Bz_lJd7NWIb-77" value="deletedAt" style="shape=partialRectangle;top=0;left=0;right=0;bottom=0;align=left;verticalAlign=top;fillColor=none;spacingLeft=40;spacingRight=4;overflow=hidden;rotatable=0;points=[[0,0.5],[1,0.5]];portConstraint=eastwest;dropTarget=0;rounded=0;shadow=0;strokeWidth=1;" parent="m11ruYbN7Bz_lJd7NWIb-52" vertex="1">
          <mxGeometry y="208" width="160" height="26" as="geometry"/>
        </mxCell>
        <mxCell id="m11ruYbN7Bz_lJd7NWIb-78" value="" style="shape=partialRectangle;top=0;left=0;bottom=0;fillColor=none;align=left;verticalAlign=top;spacingLeft=4;spacingRight=4;overflow=hidden;rotatable=0;points=[];portConstraint=eastwest;part=1;" parent="m11ruYbN7Bz_lJd7NWIb-77" vertex="1" connectable="0">
          <mxGeometry width="36" height="26" as="geometry"/>
        </mxCell>
        <mxCell id="m11ruYbN7Bz_lJd7NWIb-79" value="deletedBy" style="shape=partialRectangle;top=0;left=0;right=0;bottom=0;align=left;verticalAlign=top;fillColor=none;spacingLeft=40;spacingRight=4;overflow=hidden;rotatable=0;points=[[0,0.5],[1,0.5]];portConstraint=eastwest;dropTarget=0;rounded=0;shadow=0;strokeWidth=1;" parent="m11ruYbN7Bz_lJd7NWIb-52" vertex="1">
          <mxGeometry y="234" width="160" height="26" as="geometry"/>
        </mxCell>
        <mxCell id="m11ruYbN7Bz_lJd7NWIb-80" value="" style="shape=partialRectangle;top=0;left=0;bottom=0;fillColor=none;align=left;verticalAlign=top;spacingLeft=4;spacingRight=4;overflow=hidden;rotatable=0;points=[];portConstraint=eastwest;part=1;" parent="m11ruYbN7Bz_lJd7NWIb-79" vertex="1" connectable="0">
          <mxGeometry width="36" height="26" as="geometry"/>
        </mxCell>
        <mxCell id="m11ruYbN7Bz_lJd7NWIb-81" style="edgeStyle=orthogonalEdgeStyle;rounded=0;orthogonalLoop=1;jettySize=auto;html=1;exitX=0;exitY=0.5;exitDx=0;exitDy=0;entryX=0;entryY=0.5;entryDx=0;entryDy=0;" parent="WIyWlLk6GJQsqaUBKTNV-1" source="m11ruYbN7Bz_lJd7NWIb-50" target="m11ruYbN7Bz_lJd7NWIb-53" edge="1">
          <mxGeometry relative="1" as="geometry"/>
        </mxCell>
        <mxCell id="m11ruYbN7Bz_lJd7NWIb-88" value="ProductMedia" style="swimlane;fontStyle=1;childLayout=stackLayout;horizontal=1;startSize=26;horizontalStack=0;resizeParent=1;resizeLast=0;collapsible=1;marginBottom=0;rounded=0;shadow=0;strokeWidth=1;" parent="WIyWlLk6GJQsqaUBKTNV-1" vertex="1">
          <mxGeometry x="70" y="390" width="160" height="260" as="geometry">
            <mxRectangle x="20" y="80" width="160" height="26" as="alternateBounds"/>
          </mxGeometry>
        </mxCell>
        <mxCell id="m11ruYbN7Bz_lJd7NWIb-89" value="Id" style="shape=partialRectangle;top=0;left=0;right=0;bottom=1;align=left;verticalAlign=top;fillColor=none;spacingLeft=40;spacingRight=4;overflow=hidden;rotatable=0;points=[[0,0.5],[1,0.5]];portConstraint=eastwest;dropTarget=0;rounded=0;shadow=0;strokeWidth=1;fontStyle=4" parent="m11ruYbN7Bz_lJd7NWIb-88" vertex="1">
          <mxGeometry y="26" width="160" height="26" as="geometry"/>
        </mxCell>
        <mxCell id="m11ruYbN7Bz_lJd7NWIb-90" value="PK" style="shape=partialRectangle;top=0;left=0;bottom=0;fillColor=none;align=left;verticalAlign=top;spacingLeft=4;spacingRight=4;overflow=hidden;rotatable=0;points=[];portConstraint=eastwest;part=1;" parent="m11ruYbN7Bz_lJd7NWIb-89" vertex="1" connectable="0">
          <mxGeometry width="36" height="26" as="geometry"/>
        </mxCell>
        <mxCell id="m11ruYbN7Bz_lJd7NWIb-93" style="edgeStyle=orthogonalEdgeStyle;rounded=0;orthogonalLoop=1;jettySize=auto;html=1;exitX=0;exitY=0.5;exitDx=0;exitDy=0;entryX=0;entryY=0.5;entryDx=0;entryDy=0;" parent="m11ruYbN7Bz_lJd7NWIb-88" source="m11ruYbN7Bz_lJd7NWIb-94" target="m11ruYbN7Bz_lJd7NWIb-89" edge="1">
          <mxGeometry relative="1" as="geometry"/>
        </mxCell>
        <mxCell id="m11ruYbN7Bz_lJd7NWIb-94" value="productId" style="shape=partialRectangle;top=0;left=0;right=0;bottom=0;align=left;verticalAlign=top;fillColor=none;spacingLeft=40;spacingRight=4;overflow=hidden;rotatable=0;points=[[0,0.5],[1,0.5]];portConstraint=eastwest;dropTarget=0;rounded=0;shadow=0;strokeWidth=1;" parent="m11ruYbN7Bz_lJd7NWIb-88" vertex="1">
          <mxGeometry y="52" width="160" height="26" as="geometry"/>
        </mxCell>
        <mxCell id="m11ruYbN7Bz_lJd7NWIb-95" value="FK" style="shape=partialRectangle;top=0;left=0;bottom=0;fillColor=none;align=left;verticalAlign=top;spacingLeft=4;spacingRight=4;overflow=hidden;rotatable=0;points=[];portConstraint=eastwest;part=1;" parent="m11ruYbN7Bz_lJd7NWIb-94" vertex="1" connectable="0">
          <mxGeometry width="36" height="26" as="geometry"/>
        </mxCell>
        <mxCell id="m11ruYbN7Bz_lJd7NWIb-104" value="path" style="shape=partialRectangle;top=0;left=0;right=0;bottom=0;align=left;verticalAlign=top;fillColor=none;spacingLeft=40;spacingRight=4;overflow=hidden;rotatable=0;points=[[0,0.5],[1,0.5]];portConstraint=eastwest;dropTarget=0;rounded=0;shadow=0;strokeWidth=1;" parent="m11ruYbN7Bz_lJd7NWIb-88" vertex="1">
          <mxGeometry y="78" width="160" height="26" as="geometry"/>
        </mxCell>
        <mxCell id="m11ruYbN7Bz_lJd7NWIb-105" value="" style="shape=partialRectangle;top=0;left=0;bottom=0;fillColor=none;align=left;verticalAlign=top;spacingLeft=4;spacingRight=4;overflow=hidden;rotatable=0;points=[];portConstraint=eastwest;part=1;" parent="m11ruYbN7Bz_lJd7NWIb-104" vertex="1" connectable="0">
          <mxGeometry width="36" height="26" as="geometry"/>
        </mxCell>
        <mxCell id="m11ruYbN7Bz_lJd7NWIb-109" value="type" style="shape=partialRectangle;top=0;left=0;right=0;bottom=0;align=left;verticalAlign=top;fillColor=none;spacingLeft=40;spacingRight=4;overflow=hidden;rotatable=0;points=[[0,0.5],[1,0.5]];portConstraint=eastwest;dropTarget=0;rounded=0;shadow=0;strokeWidth=1;" parent="m11ruYbN7Bz_lJd7NWIb-88" vertex="1">
          <mxGeometry y="104" width="160" height="26" as="geometry"/>
        </mxCell>
        <mxCell id="m11ruYbN7Bz_lJd7NWIb-110" value="" style="shape=partialRectangle;top=0;left=0;bottom=0;fillColor=none;align=left;verticalAlign=top;spacingLeft=4;spacingRight=4;overflow=hidden;rotatable=0;points=[];portConstraint=eastwest;part=1;" parent="m11ruYbN7Bz_lJd7NWIb-109" vertex="1" connectable="0">
          <mxGeometry width="36" height="26" as="geometry"/>
        </mxCell>
        <mxCell id="m11ruYbN7Bz_lJd7NWIb-106" value="sequence" style="shape=partialRectangle;top=0;left=0;right=0;bottom=0;align=left;verticalAlign=top;fillColor=none;spacingLeft=40;spacingRight=4;overflow=hidden;rotatable=0;points=[[0,0.5],[1,0.5]];portConstraint=eastwest;dropTarget=0;rounded=0;shadow=0;strokeWidth=1;" parent="m11ruYbN7Bz_lJd7NWIb-88" vertex="1">
          <mxGeometry y="130" width="160" height="26" as="geometry"/>
        </mxCell>
        <mxCell id="m11ruYbN7Bz_lJd7NWIb-107" value="" style="shape=partialRectangle;top=0;left=0;bottom=0;fillColor=none;align=left;verticalAlign=top;spacingLeft=4;spacingRight=4;overflow=hidden;rotatable=0;points=[];portConstraint=eastwest;part=1;" parent="m11ruYbN7Bz_lJd7NWIb-106" vertex="1" connectable="0">
          <mxGeometry width="36" height="26" as="geometry"/>
        </mxCell>
        <mxCell id="m11ruYbN7Bz_lJd7NWIb-96" value="createdAt" style="shape=partialRectangle;top=0;left=0;right=0;bottom=0;align=left;verticalAlign=top;fillColor=none;spacingLeft=40;spacingRight=4;overflow=hidden;rotatable=0;points=[[0,0.5],[1,0.5]];portConstraint=eastwest;dropTarget=0;rounded=0;shadow=0;strokeWidth=1;" parent="m11ruYbN7Bz_lJd7NWIb-88" vertex="1">
          <mxGeometry y="156" width="160" height="26" as="geometry"/>
        </mxCell>
        <mxCell id="m11ruYbN7Bz_lJd7NWIb-97" value="" style="shape=partialRectangle;top=0;left=0;bottom=0;fillColor=none;align=left;verticalAlign=top;spacingLeft=4;spacingRight=4;overflow=hidden;rotatable=0;points=[];portConstraint=eastwest;part=1;" parent="m11ruYbN7Bz_lJd7NWIb-96" vertex="1" connectable="0">
          <mxGeometry width="36" height="26" as="geometry"/>
        </mxCell>
        <mxCell id="m11ruYbN7Bz_lJd7NWIb-98" value="createdBy" style="shape=partialRectangle;top=0;left=0;right=0;bottom=0;align=left;verticalAlign=top;fillColor=none;spacingLeft=40;spacingRight=4;overflow=hidden;rotatable=0;points=[[0,0.5],[1,0.5]];portConstraint=eastwest;dropTarget=0;rounded=0;shadow=0;strokeWidth=1;" parent="m11ruYbN7Bz_lJd7NWIb-88" vertex="1">
          <mxGeometry y="182" width="160" height="26" as="geometry"/>
        </mxCell>
        <mxCell id="m11ruYbN7Bz_lJd7NWIb-99" value="" style="shape=partialRectangle;top=0;left=0;bottom=0;fillColor=none;align=left;verticalAlign=top;spacingLeft=4;spacingRight=4;overflow=hidden;rotatable=0;points=[];portConstraint=eastwest;part=1;" parent="m11ruYbN7Bz_lJd7NWIb-98" vertex="1" connectable="0">
          <mxGeometry width="36" height="26" as="geometry"/>
        </mxCell>
        <mxCell id="m11ruYbN7Bz_lJd7NWIb-100" value="deletedAt" style="shape=partialRectangle;top=0;left=0;right=0;bottom=0;align=left;verticalAlign=top;fillColor=none;spacingLeft=40;spacingRight=4;overflow=hidden;rotatable=0;points=[[0,0.5],[1,0.5]];portConstraint=eastwest;dropTarget=0;rounded=0;shadow=0;strokeWidth=1;" parent="m11ruYbN7Bz_lJd7NWIb-88" vertex="1">
          <mxGeometry y="208" width="160" height="26" as="geometry"/>
        </mxCell>
        <mxCell id="m11ruYbN7Bz_lJd7NWIb-101" value="" style="shape=partialRectangle;top=0;left=0;bottom=0;fillColor=none;align=left;verticalAlign=top;spacingLeft=4;spacingRight=4;overflow=hidden;rotatable=0;points=[];portConstraint=eastwest;part=1;" parent="m11ruYbN7Bz_lJd7NWIb-100" vertex="1" connectable="0">
          <mxGeometry width="36" height="26" as="geometry"/>
        </mxCell>
        <mxCell id="m11ruYbN7Bz_lJd7NWIb-102" value="deletedBy" style="shape=partialRectangle;top=0;left=0;right=0;bottom=0;align=left;verticalAlign=top;fillColor=none;spacingLeft=40;spacingRight=4;overflow=hidden;rotatable=0;points=[[0,0.5],[1,0.5]];portConstraint=eastwest;dropTarget=0;rounded=0;shadow=0;strokeWidth=1;" parent="m11ruYbN7Bz_lJd7NWIb-88" vertex="1">
          <mxGeometry y="234" width="160" height="26" as="geometry"/>
        </mxCell>
        <mxCell id="m11ruYbN7Bz_lJd7NWIb-103" value="" style="shape=partialRectangle;top=0;left=0;bottom=0;fillColor=none;align=left;verticalAlign=top;spacingLeft=4;spacingRight=4;overflow=hidden;rotatable=0;points=[];portConstraint=eastwest;part=1;" parent="m11ruYbN7Bz_lJd7NWIb-102" vertex="1" connectable="0">
          <mxGeometry width="36" height="26" as="geometry"/>
        </mxCell>
        <mxCell id="m11ruYbN7Bz_lJd7NWIb-0" value="Product" style="swimlane;fontStyle=1;childLayout=stackLayout;horizontal=1;startSize=26;horizontalStack=0;resizeParent=1;resizeLast=0;collapsible=1;marginBottom=0;rounded=0;shadow=0;strokeWidth=1;" parent="WIyWlLk6GJQsqaUBKTNV-1" vertex="1">
          <mxGeometry x="300" y="330" width="160" height="208" as="geometry">
            <mxRectangle x="20" y="80" width="160" height="26" as="alternateBounds"/>
          </mxGeometry>
        </mxCell>
        <mxCell id="m11ruYbN7Bz_lJd7NWIb-1" value="Id" style="shape=partialRectangle;top=0;left=0;right=0;bottom=1;align=left;verticalAlign=top;fillColor=none;spacingLeft=40;spacingRight=4;overflow=hidden;rotatable=0;points=[[0,0.5],[1,0.5]];portConstraint=eastwest;dropTarget=0;rounded=0;shadow=0;strokeWidth=1;fontStyle=4" parent="m11ruYbN7Bz_lJd7NWIb-0" vertex="1">
          <mxGeometry y="26" width="160" height="26" as="geometry"/>
        </mxCell>
        <mxCell id="m11ruYbN7Bz_lJd7NWIb-2" value="PK" style="shape=partialRectangle;top=0;left=0;bottom=0;fillColor=none;align=left;verticalAlign=top;spacingLeft=4;spacingRight=4;overflow=hidden;rotatable=0;points=[];portConstraint=eastwest;part=1;" parent="m11ruYbN7Bz_lJd7NWIb-1" vertex="1" connectable="0">
          <mxGeometry width="36" height="26" as="geometry"/>
        </mxCell>
        <mxCell id="m11ruYbN7Bz_lJd7NWIb-3" value="sku" style="shape=partialRectangle;top=0;left=0;right=0;bottom=0;align=left;verticalAlign=top;fillColor=none;spacingLeft=40;spacingRight=4;overflow=hidden;rotatable=0;points=[[0,0.5],[1,0.5]];portConstraint=eastwest;dropTarget=0;rounded=0;shadow=0;strokeWidth=1;" parent="m11ruYbN7Bz_lJd7NWIb-0" vertex="1">
          <mxGeometry y="52" width="160" height="26" as="geometry"/>
        </mxCell>
        <mxCell id="m11ruYbN7Bz_lJd7NWIb-4" value="UK" style="shape=partialRectangle;top=0;left=0;bottom=0;fillColor=none;align=left;verticalAlign=top;spacingLeft=4;spacingRight=4;overflow=hidden;rotatable=0;points=[];portConstraint=eastwest;part=1;" parent="m11ruYbN7Bz_lJd7NWIb-3" vertex="1" connectable="0">
          <mxGeometry width="36" height="26" as="geometry"/>
        </mxCell>
        <mxCell id="m11ruYbN7Bz_lJd7NWIb-7" style="edgeStyle=orthogonalEdgeStyle;rounded=0;orthogonalLoop=1;jettySize=auto;html=1;exitX=0;exitY=0.5;exitDx=0;exitDy=0;entryX=0;entryY=0.5;entryDx=0;entryDy=0;" parent="m11ruYbN7Bz_lJd7NWIb-0" source="m11ruYbN7Bz_lJd7NWIb-5" target="m11ruYbN7Bz_lJd7NWIb-1" edge="1">
          <mxGeometry relative="1" as="geometry"/>
        </mxCell>
        <mxCell id="m11ruYbN7Bz_lJd7NWIb-5" value="parentId" style="shape=partialRectangle;top=0;left=0;right=0;bottom=0;align=left;verticalAlign=top;fillColor=none;spacingLeft=40;spacingRight=4;overflow=hidden;rotatable=0;points=[[0,0.5],[1,0.5]];portConstraint=eastwest;dropTarget=0;rounded=0;shadow=0;strokeWidth=1;" parent="m11ruYbN7Bz_lJd7NWIb-0" vertex="1">
          <mxGeometry y="78" width="160" height="26" as="geometry"/>
        </mxCell>
        <mxCell id="m11ruYbN7Bz_lJd7NWIb-6" value="FK" style="shape=partialRectangle;top=0;left=0;bottom=0;fillColor=none;align=left;verticalAlign=top;spacingLeft=4;spacingRight=4;overflow=hidden;rotatable=0;points=[];portConstraint=eastwest;part=1;" parent="m11ruYbN7Bz_lJd7NWIb-5" vertex="1" connectable="0">
          <mxGeometry width="36" height="26" as="geometry"/>
        </mxCell>
        <mxCell id="m11ruYbN7Bz_lJd7NWIb-9" value="createdAt" style="shape=partialRectangle;top=0;left=0;right=0;bottom=0;align=left;verticalAlign=top;fillColor=none;spacingLeft=40;spacingRight=4;overflow=hidden;rotatable=0;points=[[0,0.5],[1,0.5]];portConstraint=eastwest;dropTarget=0;rounded=0;shadow=0;strokeWidth=1;" parent="m11ruYbN7Bz_lJd7NWIb-0" vertex="1">
          <mxGeometry y="104" width="160" height="26" as="geometry"/>
        </mxCell>
        <mxCell id="m11ruYbN7Bz_lJd7NWIb-10" value="" style="shape=partialRectangle;top=0;left=0;bottom=0;fillColor=none;align=left;verticalAlign=top;spacingLeft=4;spacingRight=4;overflow=hidden;rotatable=0;points=[];portConstraint=eastwest;part=1;" parent="m11ruYbN7Bz_lJd7NWIb-9" vertex="1" connectable="0">
          <mxGeometry width="36" height="26" as="geometry"/>
        </mxCell>
        <mxCell id="m11ruYbN7Bz_lJd7NWIb-11" value="createdBy" style="shape=partialRectangle;top=0;left=0;right=0;bottom=0;align=left;verticalAlign=top;fillColor=none;spacingLeft=40;spacingRight=4;overflow=hidden;rotatable=0;points=[[0,0.5],[1,0.5]];portConstraint=eastwest;dropTarget=0;rounded=0;shadow=0;strokeWidth=1;" parent="m11ruYbN7Bz_lJd7NWIb-0" vertex="1">
          <mxGeometry y="130" width="160" height="26" as="geometry"/>
        </mxCell>
        <mxCell id="m11ruYbN7Bz_lJd7NWIb-12" value="" style="shape=partialRectangle;top=0;left=0;bottom=0;fillColor=none;align=left;verticalAlign=top;spacingLeft=4;spacingRight=4;overflow=hidden;rotatable=0;points=[];portConstraint=eastwest;part=1;" parent="m11ruYbN7Bz_lJd7NWIb-11" vertex="1" connectable="0">
          <mxGeometry width="36" height="26" as="geometry"/>
        </mxCell>
        <mxCell id="m11ruYbN7Bz_lJd7NWIb-13" value="deletedAt" style="shape=partialRectangle;top=0;left=0;right=0;bottom=0;align=left;verticalAlign=top;fillColor=none;spacingLeft=40;spacingRight=4;overflow=hidden;rotatable=0;points=[[0,0.5],[1,0.5]];portConstraint=eastwest;dropTarget=0;rounded=0;shadow=0;strokeWidth=1;" parent="m11ruYbN7Bz_lJd7NWIb-0" vertex="1">
          <mxGeometry y="156" width="160" height="26" as="geometry"/>
        </mxCell>
        <mxCell id="m11ruYbN7Bz_lJd7NWIb-14" value="" style="shape=partialRectangle;top=0;left=0;bottom=0;fillColor=none;align=left;verticalAlign=top;spacingLeft=4;spacingRight=4;overflow=hidden;rotatable=0;points=[];portConstraint=eastwest;part=1;" parent="m11ruYbN7Bz_lJd7NWIb-13" vertex="1" connectable="0">
          <mxGeometry width="36" height="26" as="geometry"/>
        </mxCell>
        <mxCell id="m11ruYbN7Bz_lJd7NWIb-15" value="deletedBy" style="shape=partialRectangle;top=0;left=0;right=0;bottom=0;align=left;verticalAlign=top;fillColor=none;spacingLeft=40;spacingRight=4;overflow=hidden;rotatable=0;points=[[0,0.5],[1,0.5]];portConstraint=eastwest;dropTarget=0;rounded=0;shadow=0;strokeWidth=1;" parent="m11ruYbN7Bz_lJd7NWIb-0" vertex="1">
          <mxGeometry y="182" width="160" height="26" as="geometry"/>
        </mxCell>
        <mxCell id="m11ruYbN7Bz_lJd7NWIb-16" value="" style="shape=partialRectangle;top=0;left=0;bottom=0;fillColor=none;align=left;verticalAlign=top;spacingLeft=4;spacingRight=4;overflow=hidden;rotatable=0;points=[];portConstraint=eastwest;part=1;" parent="m11ruYbN7Bz_lJd7NWIb-15" vertex="1" connectable="0">
          <mxGeometry width="36" height="26" as="geometry"/>
        </mxCell>
        <mxCell id="m11ruYbN7Bz_lJd7NWIb-108" style="edgeStyle=orthogonalEdgeStyle;rounded=0;orthogonalLoop=1;jettySize=auto;html=1;exitX=0;exitY=0.5;exitDx=0;exitDy=0;entryX=0;entryY=0.5;entryDx=0;entryDy=0;" parent="WIyWlLk6GJQsqaUBKTNV-1" source="m11ruYbN7Bz_lJd7NWIb-94" target="m11ruYbN7Bz_lJd7NWIb-1" edge="1">
          <mxGeometry relative="1" as="geometry"/>
        </mxCell>
        <mxCell id="m11ruYbN7Bz_lJd7NWIb-111" value="ProductReview" style="swimlane;fontStyle=1;childLayout=stackLayout;horizontal=1;startSize=26;horizontalStack=0;resizeParent=1;resizeLast=0;collapsible=1;marginBottom=0;rounded=0;shadow=0;strokeWidth=1;" parent="WIyWlLk6GJQsqaUBKTNV-1" vertex="1">
          <mxGeometry x="20" y="70" width="160" height="260" as="geometry">
            <mxRectangle x="20" y="80" width="160" height="26" as="alternateBounds"/>
          </mxGeometry>
        </mxCell>
        <mxCell id="m11ruYbN7Bz_lJd7NWIb-112" value="Id" style="shape=partialRectangle;top=0;left=0;right=0;bottom=1;align=left;verticalAlign=top;fillColor=none;spacingLeft=40;spacingRight=4;overflow=hidden;rotatable=0;points=[[0,0.5],[1,0.5]];portConstraint=eastwest;dropTarget=0;rounded=0;shadow=0;strokeWidth=1;fontStyle=4" parent="m11ruYbN7Bz_lJd7NWIb-111" vertex="1">
          <mxGeometry y="26" width="160" height="26" as="geometry"/>
        </mxCell>
        <mxCell id="m11ruYbN7Bz_lJd7NWIb-113" value="PK" style="shape=partialRectangle;top=0;left=0;bottom=0;fillColor=none;align=left;verticalAlign=top;spacingLeft=4;spacingRight=4;overflow=hidden;rotatable=0;points=[];portConstraint=eastwest;part=1;" parent="m11ruYbN7Bz_lJd7NWIb-112" vertex="1" connectable="0">
          <mxGeometry width="36" height="26" as="geometry"/>
        </mxCell>
        <mxCell id="m11ruYbN7Bz_lJd7NWIb-114" style="edgeStyle=orthogonalEdgeStyle;rounded=0;orthogonalLoop=1;jettySize=auto;html=1;exitX=0;exitY=0.5;exitDx=0;exitDy=0;entryX=0;entryY=0.5;entryDx=0;entryDy=0;" parent="m11ruYbN7Bz_lJd7NWIb-111" source="m11ruYbN7Bz_lJd7NWIb-115" target="m11ruYbN7Bz_lJd7NWIb-112" edge="1">
          <mxGeometry relative="1" as="geometry"/>
        </mxCell>
        <mxCell id="m11ruYbN7Bz_lJd7NWIb-115" value="productId" style="shape=partialRectangle;top=0;left=0;right=0;bottom=0;align=left;verticalAlign=top;fillColor=none;spacingLeft=40;spacingRight=4;overflow=hidden;rotatable=0;points=[[0,0.5],[1,0.5]];portConstraint=eastwest;dropTarget=0;rounded=0;shadow=0;strokeWidth=1;" parent="m11ruYbN7Bz_lJd7NWIb-111" vertex="1">
          <mxGeometry y="52" width="160" height="26" as="geometry"/>
        </mxCell>
        <mxCell id="m11ruYbN7Bz_lJd7NWIb-116" value="FK" style="shape=partialRectangle;top=0;left=0;bottom=0;fillColor=none;align=left;verticalAlign=top;spacingLeft=4;spacingRight=4;overflow=hidden;rotatable=0;points=[];portConstraint=eastwest;part=1;" parent="m11ruYbN7Bz_lJd7NWIb-115" vertex="1" connectable="0">
          <mxGeometry width="36" height="26" as="geometry"/>
        </mxCell>
        <mxCell id="m11ruYbN7Bz_lJd7NWIb-117" value="title" style="shape=partialRectangle;top=0;left=0;right=0;bottom=0;align=left;verticalAlign=top;fillColor=none;spacingLeft=40;spacingRight=4;overflow=hidden;rotatable=0;points=[[0,0.5],[1,0.5]];portConstraint=eastwest;dropTarget=0;rounded=0;shadow=0;strokeWidth=1;" parent="m11ruYbN7Bz_lJd7NWIb-111" vertex="1">
          <mxGeometry y="78" width="160" height="26" as="geometry"/>
        </mxCell>
        <mxCell id="m11ruYbN7Bz_lJd7NWIb-118" value="" style="shape=partialRectangle;top=0;left=0;bottom=0;fillColor=none;align=left;verticalAlign=top;spacingLeft=4;spacingRight=4;overflow=hidden;rotatable=0;points=[];portConstraint=eastwest;part=1;" parent="m11ruYbN7Bz_lJd7NWIb-117" vertex="1" connectable="0">
          <mxGeometry width="36" height="26" as="geometry"/>
        </mxCell>
        <mxCell id="m11ruYbN7Bz_lJd7NWIb-119" value="rating" style="shape=partialRectangle;top=0;left=0;right=0;bottom=0;align=left;verticalAlign=top;fillColor=none;spacingLeft=40;spacingRight=4;overflow=hidden;rotatable=0;points=[[0,0.5],[1,0.5]];portConstraint=eastwest;dropTarget=0;rounded=0;shadow=0;strokeWidth=1;" parent="m11ruYbN7Bz_lJd7NWIb-111" vertex="1">
          <mxGeometry y="104" width="160" height="26" as="geometry"/>
        </mxCell>
        <mxCell id="m11ruYbN7Bz_lJd7NWIb-120" value="" style="shape=partialRectangle;top=0;left=0;bottom=0;fillColor=none;align=left;verticalAlign=top;spacingLeft=4;spacingRight=4;overflow=hidden;rotatable=0;points=[];portConstraint=eastwest;part=1;" parent="m11ruYbN7Bz_lJd7NWIb-119" vertex="1" connectable="0">
          <mxGeometry width="36" height="26" as="geometry"/>
        </mxCell>
        <mxCell id="m11ruYbN7Bz_lJd7NWIb-121" value="comment" style="shape=partialRectangle;top=0;left=0;right=0;bottom=0;align=left;verticalAlign=top;fillColor=none;spacingLeft=40;spacingRight=4;overflow=hidden;rotatable=0;points=[[0,0.5],[1,0.5]];portConstraint=eastwest;dropTarget=0;rounded=0;shadow=0;strokeWidth=1;" parent="m11ruYbN7Bz_lJd7NWIb-111" vertex="1">
          <mxGeometry y="130" width="160" height="26" as="geometry"/>
        </mxCell>
        <mxCell id="m11ruYbN7Bz_lJd7NWIb-122" value="" style="shape=partialRectangle;top=0;left=0;bottom=0;fillColor=none;align=left;verticalAlign=top;spacingLeft=4;spacingRight=4;overflow=hidden;rotatable=0;points=[];portConstraint=eastwest;part=1;" parent="m11ruYbN7Bz_lJd7NWIb-121" vertex="1" connectable="0">
          <mxGeometry width="36" height="26" as="geometry"/>
        </mxCell>
        <mxCell id="m11ruYbN7Bz_lJd7NWIb-123" value="createdAt" style="shape=partialRectangle;top=0;left=0;right=0;bottom=0;align=left;verticalAlign=top;fillColor=none;spacingLeft=40;spacingRight=4;overflow=hidden;rotatable=0;points=[[0,0.5],[1,0.5]];portConstraint=eastwest;dropTarget=0;rounded=0;shadow=0;strokeWidth=1;" parent="m11ruYbN7Bz_lJd7NWIb-111" vertex="1">
          <mxGeometry y="156" width="160" height="26" as="geometry"/>
        </mxCell>
        <mxCell id="m11ruYbN7Bz_lJd7NWIb-124" value="" style="shape=partialRectangle;top=0;left=0;bottom=0;fillColor=none;align=left;verticalAlign=top;spacingLeft=4;spacingRight=4;overflow=hidden;rotatable=0;points=[];portConstraint=eastwest;part=1;" parent="m11ruYbN7Bz_lJd7NWIb-123" vertex="1" connectable="0">
          <mxGeometry width="36" height="26" as="geometry"/>
        </mxCell>
        <mxCell id="m11ruYbN7Bz_lJd7NWIb-125" value="createdBy" style="shape=partialRectangle;top=0;left=0;right=0;bottom=0;align=left;verticalAlign=top;fillColor=none;spacingLeft=40;spacingRight=4;overflow=hidden;rotatable=0;points=[[0,0.5],[1,0.5]];portConstraint=eastwest;dropTarget=0;rounded=0;shadow=0;strokeWidth=1;" parent="m11ruYbN7Bz_lJd7NWIb-111" vertex="1">
          <mxGeometry y="182" width="160" height="26" as="geometry"/>
        </mxCell>
        <mxCell id="m11ruYbN7Bz_lJd7NWIb-126" value="" style="shape=partialRectangle;top=0;left=0;bottom=0;fillColor=none;align=left;verticalAlign=top;spacingLeft=4;spacingRight=4;overflow=hidden;rotatable=0;points=[];portConstraint=eastwest;part=1;" parent="m11ruYbN7Bz_lJd7NWIb-125" vertex="1" connectable="0">
          <mxGeometry width="36" height="26" as="geometry"/>
        </mxCell>
        <mxCell id="m11ruYbN7Bz_lJd7NWIb-127" value="deletedAt" style="shape=partialRectangle;top=0;left=0;right=0;bottom=0;align=left;verticalAlign=top;fillColor=none;spacingLeft=40;spacingRight=4;overflow=hidden;rotatable=0;points=[[0,0.5],[1,0.5]];portConstraint=eastwest;dropTarget=0;rounded=0;shadow=0;strokeWidth=1;" parent="m11ruYbN7Bz_lJd7NWIb-111" vertex="1">
          <mxGeometry y="208" width="160" height="26" as="geometry"/>
        </mxCell>
        <mxCell id="m11ruYbN7Bz_lJd7NWIb-128" value="" style="shape=partialRectangle;top=0;left=0;bottom=0;fillColor=none;align=left;verticalAlign=top;spacingLeft=4;spacingRight=4;overflow=hidden;rotatable=0;points=[];portConstraint=eastwest;part=1;" parent="m11ruYbN7Bz_lJd7NWIb-127" vertex="1" connectable="0">
          <mxGeometry width="36" height="26" as="geometry"/>
        </mxCell>
        <mxCell id="m11ruYbN7Bz_lJd7NWIb-129" value="updatedAt" style="shape=partialRectangle;top=0;left=0;right=0;bottom=0;align=left;verticalAlign=top;fillColor=none;spacingLeft=40;spacingRight=4;overflow=hidden;rotatable=0;points=[[0,0.5],[1,0.5]];portConstraint=eastwest;dropTarget=0;rounded=0;shadow=0;strokeWidth=1;" parent="m11ruYbN7Bz_lJd7NWIb-111" vertex="1">
          <mxGeometry y="234" width="160" height="26" as="geometry"/>
        </mxCell>
        <mxCell id="m11ruYbN7Bz_lJd7NWIb-130" value="" style="shape=partialRectangle;top=0;left=0;bottom=0;fillColor=none;align=left;verticalAlign=top;spacingLeft=4;spacingRight=4;overflow=hidden;rotatable=0;points=[];portConstraint=eastwest;part=1;" parent="m11ruYbN7Bz_lJd7NWIb-129" vertex="1" connectable="0">
          <mxGeometry width="36" height="26" as="geometry"/>
        </mxCell>
        <mxCell id="m11ruYbN7Bz_lJd7NWIb-131" style="edgeStyle=orthogonalEdgeStyle;rounded=0;orthogonalLoop=1;jettySize=auto;html=1;exitX=1;exitY=0.5;exitDx=0;exitDy=0;entryX=0;entryY=0.5;entryDx=0;entryDy=0;" parent="WIyWlLk6GJQsqaUBKTNV-1" source="m11ruYbN7Bz_lJd7NWIb-115" target="m11ruYbN7Bz_lJd7NWIb-1" edge="1">
          <mxGeometry relative="1" as="geometry"/>
        </mxCell>
        <mxCell id="m11ruYbN7Bz_lJd7NWIb-132" value="Categories" style="swimlane;fontStyle=1;childLayout=stackLayout;horizontal=1;startSize=26;horizontalStack=0;resizeParent=1;resizeLast=0;collapsible=1;marginBottom=0;rounded=0;shadow=0;strokeWidth=1;" parent="WIyWlLk6GJQsqaUBKTNV-1" vertex="1">
          <mxGeometry x="270" y="1210" width="160" height="260" as="geometry">
            <mxRectangle x="20" y="80" width="160" height="26" as="alternateBounds"/>
          </mxGeometry>
        </mxCell>
        <mxCell id="m11ruYbN7Bz_lJd7NWIb-133" value="Id" style="shape=partialRectangle;top=0;left=0;right=0;bottom=1;align=left;verticalAlign=top;fillColor=none;spacingLeft=40;spacingRight=4;overflow=hidden;rotatable=0;points=[[0,0.5],[1,0.5]];portConstraint=eastwest;dropTarget=0;rounded=0;shadow=0;strokeWidth=1;fontStyle=4" parent="m11ruYbN7Bz_lJd7NWIb-132" vertex="1">
          <mxGeometry y="26" width="160" height="26" as="geometry"/>
        </mxCell>
        <mxCell id="m11ruYbN7Bz_lJd7NWIb-134" value="PK" style="shape=partialRectangle;top=0;left=0;bottom=0;fillColor=none;align=left;verticalAlign=top;spacingLeft=4;spacingRight=4;overflow=hidden;rotatable=0;points=[];portConstraint=eastwest;part=1;" parent="m11ruYbN7Bz_lJd7NWIb-133" vertex="1" connectable="0">
          <mxGeometry width="36" height="26" as="geometry"/>
        </mxCell>
        <mxCell id="m11ruYbN7Bz_lJd7NWIb-135" value="name" style="shape=partialRectangle;top=0;left=0;right=0;bottom=0;align=left;verticalAlign=top;fillColor=none;spacingLeft=40;spacingRight=4;overflow=hidden;rotatable=0;points=[[0,0.5],[1,0.5]];portConstraint=eastwest;dropTarget=0;rounded=0;shadow=0;strokeWidth=1;" parent="m11ruYbN7Bz_lJd7NWIb-132" vertex="1">
          <mxGeometry y="52" width="160" height="26" as="geometry"/>
        </mxCell>
        <mxCell id="m11ruYbN7Bz_lJd7NWIb-136" value="" style="shape=partialRectangle;top=0;left=0;bottom=0;fillColor=none;align=left;verticalAlign=top;spacingLeft=4;spacingRight=4;overflow=hidden;rotatable=0;points=[];portConstraint=eastwest;part=1;" parent="m11ruYbN7Bz_lJd7NWIb-135" vertex="1" connectable="0">
          <mxGeometry width="36" height="26" as="geometry"/>
        </mxCell>
        <mxCell id="m11ruYbN7Bz_lJd7NWIb-139" value="description" style="shape=partialRectangle;top=0;left=0;right=0;bottom=0;align=left;verticalAlign=top;fillColor=none;spacingLeft=40;spacingRight=4;overflow=hidden;rotatable=0;points=[[0,0.5],[1,0.5]];portConstraint=eastwest;dropTarget=0;rounded=0;shadow=0;strokeWidth=1;" parent="m11ruYbN7Bz_lJd7NWIb-132" vertex="1">
          <mxGeometry y="78" width="160" height="26" as="geometry"/>
        </mxCell>
        <mxCell id="m11ruYbN7Bz_lJd7NWIb-140" value="" style="shape=partialRectangle;top=0;left=0;bottom=0;fillColor=none;align=left;verticalAlign=top;spacingLeft=4;spacingRight=4;overflow=hidden;rotatable=0;points=[];portConstraint=eastwest;part=1;" parent="m11ruYbN7Bz_lJd7NWIb-139" vertex="1" connectable="0">
          <mxGeometry width="36" height="26" as="geometry"/>
        </mxCell>
        <mxCell id="m11ruYbN7Bz_lJd7NWIb-137" value="parentId" style="shape=partialRectangle;top=0;left=0;right=0;bottom=0;align=left;verticalAlign=top;fillColor=none;spacingLeft=40;spacingRight=4;overflow=hidden;rotatable=0;points=[[0,0.5],[1,0.5]];portConstraint=eastwest;dropTarget=0;rounded=0;shadow=0;strokeWidth=1;" parent="m11ruYbN7Bz_lJd7NWIb-132" vertex="1">
          <mxGeometry y="104" width="160" height="26" as="geometry"/>
        </mxCell>
        <mxCell id="m11ruYbN7Bz_lJd7NWIb-138" value="" style="shape=partialRectangle;top=0;left=0;bottom=0;fillColor=none;align=left;verticalAlign=top;spacingLeft=4;spacingRight=4;overflow=hidden;rotatable=0;points=[];portConstraint=eastwest;part=1;" parent="m11ruYbN7Bz_lJd7NWIb-137" vertex="1" connectable="0">
          <mxGeometry width="36" height="26" as="geometry"/>
        </mxCell>
        <mxCell id="m11ruYbN7Bz_lJd7NWIb-141" value="position" style="shape=partialRectangle;top=0;left=0;right=0;bottom=0;align=left;verticalAlign=top;fillColor=none;spacingLeft=40;spacingRight=4;overflow=hidden;rotatable=0;points=[[0,0.5],[1,0.5]];portConstraint=eastwest;dropTarget=0;rounded=0;shadow=0;strokeWidth=1;" parent="m11ruYbN7Bz_lJd7NWIb-132" vertex="1">
          <mxGeometry y="130" width="160" height="26" as="geometry"/>
        </mxCell>
        <mxCell id="m11ruYbN7Bz_lJd7NWIb-142" value="" style="shape=partialRectangle;top=0;left=0;bottom=0;fillColor=none;align=left;verticalAlign=top;spacingLeft=4;spacingRight=4;overflow=hidden;rotatable=0;points=[];portConstraint=eastwest;part=1;" parent="m11ruYbN7Bz_lJd7NWIb-141" vertex="1" connectable="0">
          <mxGeometry width="36" height="26" as="geometry"/>
        </mxCell>
        <mxCell id="m11ruYbN7Bz_lJd7NWIb-143" value="createdAt" style="shape=partialRectangle;top=0;left=0;right=0;bottom=0;align=left;verticalAlign=top;fillColor=none;spacingLeft=40;spacingRight=4;overflow=hidden;rotatable=0;points=[[0,0.5],[1,0.5]];portConstraint=eastwest;dropTarget=0;rounded=0;shadow=0;strokeWidth=1;" parent="m11ruYbN7Bz_lJd7NWIb-132" vertex="1">
          <mxGeometry y="156" width="160" height="26" as="geometry"/>
        </mxCell>
        <mxCell id="m11ruYbN7Bz_lJd7NWIb-144" value="" style="shape=partialRectangle;top=0;left=0;bottom=0;fillColor=none;align=left;verticalAlign=top;spacingLeft=4;spacingRight=4;overflow=hidden;rotatable=0;points=[];portConstraint=eastwest;part=1;" parent="m11ruYbN7Bz_lJd7NWIb-143" vertex="1" connectable="0">
          <mxGeometry width="36" height="26" as="geometry"/>
        </mxCell>
        <mxCell id="m11ruYbN7Bz_lJd7NWIb-145" value="createdBy" style="shape=partialRectangle;top=0;left=0;right=0;bottom=0;align=left;verticalAlign=top;fillColor=none;spacingLeft=40;spacingRight=4;overflow=hidden;rotatable=0;points=[[0,0.5],[1,0.5]];portConstraint=eastwest;dropTarget=0;rounded=0;shadow=0;strokeWidth=1;" parent="m11ruYbN7Bz_lJd7NWIb-132" vertex="1">
          <mxGeometry y="182" width="160" height="26" as="geometry"/>
        </mxCell>
        <mxCell id="m11ruYbN7Bz_lJd7NWIb-146" value="" style="shape=partialRectangle;top=0;left=0;bottom=0;fillColor=none;align=left;verticalAlign=top;spacingLeft=4;spacingRight=4;overflow=hidden;rotatable=0;points=[];portConstraint=eastwest;part=1;" parent="m11ruYbN7Bz_lJd7NWIb-145" vertex="1" connectable="0">
          <mxGeometry width="36" height="26" as="geometry"/>
        </mxCell>
        <mxCell id="m11ruYbN7Bz_lJd7NWIb-147" value="deletedAt" style="shape=partialRectangle;top=0;left=0;right=0;bottom=0;align=left;verticalAlign=top;fillColor=none;spacingLeft=40;spacingRight=4;overflow=hidden;rotatable=0;points=[[0,0.5],[1,0.5]];portConstraint=eastwest;dropTarget=0;rounded=0;shadow=0;strokeWidth=1;" parent="m11ruYbN7Bz_lJd7NWIb-132" vertex="1">
          <mxGeometry y="208" width="160" height="26" as="geometry"/>
        </mxCell>
        <mxCell id="m11ruYbN7Bz_lJd7NWIb-148" value="" style="shape=partialRectangle;top=0;left=0;bottom=0;fillColor=none;align=left;verticalAlign=top;spacingLeft=4;spacingRight=4;overflow=hidden;rotatable=0;points=[];portConstraint=eastwest;part=1;" parent="m11ruYbN7Bz_lJd7NWIb-147" vertex="1" connectable="0">
          <mxGeometry width="36" height="26" as="geometry"/>
        </mxCell>
        <mxCell id="m11ruYbN7Bz_lJd7NWIb-149" value="deletedBy" style="shape=partialRectangle;top=0;left=0;right=0;bottom=0;align=left;verticalAlign=top;fillColor=none;spacingLeft=40;spacingRight=4;overflow=hidden;rotatable=0;points=[[0,0.5],[1,0.5]];portConstraint=eastwest;dropTarget=0;rounded=0;shadow=0;strokeWidth=1;" parent="m11ruYbN7Bz_lJd7NWIb-132" vertex="1">
          <mxGeometry y="234" width="160" height="26" as="geometry"/>
        </mxCell>
        <mxCell id="m11ruYbN7Bz_lJd7NWIb-150" value="" style="shape=partialRectangle;top=0;left=0;bottom=0;fillColor=none;align=left;verticalAlign=top;spacingLeft=4;spacingRight=4;overflow=hidden;rotatable=0;points=[];portConstraint=eastwest;part=1;" parent="m11ruYbN7Bz_lJd7NWIb-149" vertex="1" connectable="0">
          <mxGeometry width="36" height="26" as="geometry"/>
        </mxCell>
        <mxCell id="m11ruYbN7Bz_lJd7NWIb-151" value="ProductCategories" style="swimlane;fontStyle=1;childLayout=stackLayout;horizontal=1;startSize=26;horizontalStack=0;resizeParent=1;resizeLast=0;collapsible=1;marginBottom=0;rounded=0;shadow=0;strokeWidth=1;" parent="WIyWlLk6GJQsqaUBKTNV-1" vertex="1">
          <mxGeometry x="280" y="1010" width="160" height="182" as="geometry">
            <mxRectangle x="20" y="80" width="160" height="26" as="alternateBounds"/>
          </mxGeometry>
        </mxCell>
        <mxCell id="m11ruYbN7Bz_lJd7NWIb-156" value="productId" style="shape=partialRectangle;top=0;left=0;right=0;bottom=0;align=left;verticalAlign=top;fillColor=none;spacingLeft=40;spacingRight=4;overflow=hidden;rotatable=0;points=[[0,0.5],[1,0.5]];portConstraint=eastwest;dropTarget=0;rounded=0;shadow=0;strokeWidth=1;" parent="m11ruYbN7Bz_lJd7NWIb-151" vertex="1">
          <mxGeometry y="26" width="160" height="26" as="geometry"/>
        </mxCell>
        <mxCell id="m11ruYbN7Bz_lJd7NWIb-157" value="" style="shape=partialRectangle;top=0;left=0;bottom=0;fillColor=none;align=left;verticalAlign=top;spacingLeft=4;spacingRight=4;overflow=hidden;rotatable=0;points=[];portConstraint=eastwest;part=1;" parent="m11ruYbN7Bz_lJd7NWIb-156" vertex="1" connectable="0">
          <mxGeometry width="36" height="26" as="geometry"/>
        </mxCell>
        <mxCell id="m11ruYbN7Bz_lJd7NWIb-158" value="categoryId" style="shape=partialRectangle;top=0;left=0;right=0;bottom=0;align=left;verticalAlign=top;fillColor=none;spacingLeft=40;spacingRight=4;overflow=hidden;rotatable=0;points=[[0,0.5],[1,0.5]];portConstraint=eastwest;dropTarget=0;rounded=0;shadow=0;strokeWidth=1;" parent="m11ruYbN7Bz_lJd7NWIb-151" vertex="1">
          <mxGeometry y="52" width="160" height="26" as="geometry"/>
        </mxCell>
        <mxCell id="m11ruYbN7Bz_lJd7NWIb-159" value="" style="shape=partialRectangle;top=0;left=0;bottom=0;fillColor=none;align=left;verticalAlign=top;spacingLeft=4;spacingRight=4;overflow=hidden;rotatable=0;points=[];portConstraint=eastwest;part=1;" parent="m11ruYbN7Bz_lJd7NWIb-158" vertex="1" connectable="0">
          <mxGeometry width="36" height="26" as="geometry"/>
        </mxCell>
        <mxCell id="m11ruYbN7Bz_lJd7NWIb-162" value="createdAt" style="shape=partialRectangle;top=0;left=0;right=0;bottom=0;align=left;verticalAlign=top;fillColor=none;spacingLeft=40;spacingRight=4;overflow=hidden;rotatable=0;points=[[0,0.5],[1,0.5]];portConstraint=eastwest;dropTarget=0;rounded=0;shadow=0;strokeWidth=1;" parent="m11ruYbN7Bz_lJd7NWIb-151" vertex="1">
          <mxGeometry y="78" width="160" height="26" as="geometry"/>
        </mxCell>
        <mxCell id="m11ruYbN7Bz_lJd7NWIb-163" value="" style="shape=partialRectangle;top=0;left=0;bottom=0;fillColor=none;align=left;verticalAlign=top;spacingLeft=4;spacingRight=4;overflow=hidden;rotatable=0;points=[];portConstraint=eastwest;part=1;" parent="m11ruYbN7Bz_lJd7NWIb-162" vertex="1" connectable="0">
          <mxGeometry width="36" height="26" as="geometry"/>
        </mxCell>
        <mxCell id="m11ruYbN7Bz_lJd7NWIb-164" value="createdBy" style="shape=partialRectangle;top=0;left=0;right=0;bottom=0;align=left;verticalAlign=top;fillColor=none;spacingLeft=40;spacingRight=4;overflow=hidden;rotatable=0;points=[[0,0.5],[1,0.5]];portConstraint=eastwest;dropTarget=0;rounded=0;shadow=0;strokeWidth=1;" parent="m11ruYbN7Bz_lJd7NWIb-151" vertex="1">
          <mxGeometry y="104" width="160" height="26" as="geometry"/>
        </mxCell>
        <mxCell id="m11ruYbN7Bz_lJd7NWIb-165" value="" style="shape=partialRectangle;top=0;left=0;bottom=0;fillColor=none;align=left;verticalAlign=top;spacingLeft=4;spacingRight=4;overflow=hidden;rotatable=0;points=[];portConstraint=eastwest;part=1;" parent="m11ruYbN7Bz_lJd7NWIb-164" vertex="1" connectable="0">
          <mxGeometry width="36" height="26" as="geometry"/>
        </mxCell>
        <mxCell id="m11ruYbN7Bz_lJd7NWIb-166" value="deletedAt" style="shape=partialRectangle;top=0;left=0;right=0;bottom=0;align=left;verticalAlign=top;fillColor=none;spacingLeft=40;spacingRight=4;overflow=hidden;rotatable=0;points=[[0,0.5],[1,0.5]];portConstraint=eastwest;dropTarget=0;rounded=0;shadow=0;strokeWidth=1;" parent="m11ruYbN7Bz_lJd7NWIb-151" vertex="1">
          <mxGeometry y="130" width="160" height="26" as="geometry"/>
        </mxCell>
        <mxCell id="m11ruYbN7Bz_lJd7NWIb-167" value="" style="shape=partialRectangle;top=0;left=0;bottom=0;fillColor=none;align=left;verticalAlign=top;spacingLeft=4;spacingRight=4;overflow=hidden;rotatable=0;points=[];portConstraint=eastwest;part=1;" parent="m11ruYbN7Bz_lJd7NWIb-166" vertex="1" connectable="0">
          <mxGeometry width="36" height="26" as="geometry"/>
        </mxCell>
        <mxCell id="m11ruYbN7Bz_lJd7NWIb-168" value="deletedBy" style="shape=partialRectangle;top=0;left=0;right=0;bottom=0;align=left;verticalAlign=top;fillColor=none;spacingLeft=40;spacingRight=4;overflow=hidden;rotatable=0;points=[[0,0.5],[1,0.5]];portConstraint=eastwest;dropTarget=0;rounded=0;shadow=0;strokeWidth=1;" parent="m11ruYbN7Bz_lJd7NWIb-151" vertex="1">
          <mxGeometry y="156" width="160" height="26" as="geometry"/>
        </mxCell>
        <mxCell id="m11ruYbN7Bz_lJd7NWIb-169" value="" style="shape=partialRectangle;top=0;left=0;bottom=0;fillColor=none;align=left;verticalAlign=top;spacingLeft=4;spacingRight=4;overflow=hidden;rotatable=0;points=[];portConstraint=eastwest;part=1;" parent="m11ruYbN7Bz_lJd7NWIb-168" vertex="1" connectable="0">
          <mxGeometry width="36" height="26" as="geometry"/>
        </mxCell>
        <mxCell id="m11ruYbN7Bz_lJd7NWIb-172" style="edgeStyle=orthogonalEdgeStyle;rounded=0;orthogonalLoop=1;jettySize=auto;html=1;exitX=0;exitY=0.5;exitDx=0;exitDy=0;entryX=0;entryY=0.5;entryDx=0;entryDy=0;" parent="WIyWlLk6GJQsqaUBKTNV-1" source="m11ruYbN7Bz_lJd7NWIb-156" target="m11ruYbN7Bz_lJd7NWIb-1" edge="1">
          <mxGeometry relative="1" as="geometry"/>
        </mxCell>
        <mxCell id="m11ruYbN7Bz_lJd7NWIb-173" style="edgeStyle=orthogonalEdgeStyle;rounded=0;orthogonalLoop=1;jettySize=auto;html=1;exitX=0;exitY=0.5;exitDx=0;exitDy=0;entryX=0;entryY=0.5;entryDx=0;entryDy=0;" parent="WIyWlLk6GJQsqaUBKTNV-1" source="m11ruYbN7Bz_lJd7NWIb-158" target="m11ruYbN7Bz_lJd7NWIb-133" edge="1">
          <mxGeometry relative="1" as="geometry"/>
        </mxCell>
        <mxCell id="4fiELDmcAO46Hj7w_OrO-0" value="Cart" style="swimlane;fontStyle=1;childLayout=stackLayout;horizontal=1;startSize=26;horizontalStack=0;resizeParent=1;resizeLast=0;collapsible=1;marginBottom=0;rounded=0;shadow=0;strokeWidth=1;" parent="WIyWlLk6GJQsqaUBKTNV-1" vertex="1">
          <mxGeometry x="590" y="510" width="160" height="364" as="geometry">
            <mxRectangle x="20" y="80" width="160" height="26" as="alternateBounds"/>
          </mxGeometry>
        </mxCell>
        <mxCell id="4fiELDmcAO46Hj7w_OrO-1" value="Id" style="shape=partialRectangle;top=0;left=0;right=0;bottom=1;align=left;verticalAlign=top;fillColor=none;spacingLeft=40;spacingRight=4;overflow=hidden;rotatable=0;points=[[0,0.5],[1,0.5]];portConstraint=eastwest;dropTarget=0;rounded=0;shadow=0;strokeWidth=1;fontStyle=4" parent="4fiELDmcAO46Hj7w_OrO-0" vertex="1">
          <mxGeometry y="26" width="160" height="26" as="geometry"/>
        </mxCell>
        <mxCell id="4fiELDmcAO46Hj7w_OrO-2" value="PK" style="shape=partialRectangle;top=0;left=0;bottom=0;fillColor=none;align=left;verticalAlign=top;spacingLeft=4;spacingRight=4;overflow=hidden;rotatable=0;points=[];portConstraint=eastwest;part=1;" parent="4fiELDmcAO46Hj7w_OrO-1" vertex="1" connectable="0">
          <mxGeometry width="36" height="26" as="geometry"/>
        </mxCell>
        <mxCell id="4fiELDmcAO46Hj7w_OrO-6" value="status(product added, order created)" style="shape=partialRectangle;top=0;left=0;right=0;bottom=0;align=left;verticalAlign=top;fillColor=none;spacingLeft=40;spacingRight=4;overflow=hidden;rotatable=0;points=[[0,0.5],[1,0.5]];portConstraint=eastwest;dropTarget=0;rounded=0;shadow=0;strokeWidth=1;" parent="4fiELDmcAO46Hj7w_OrO-0" vertex="1">
          <mxGeometry y="52" width="160" height="26" as="geometry"/>
        </mxCell>
        <mxCell id="4fiELDmcAO46Hj7w_OrO-7" value="" style="shape=partialRectangle;top=0;left=0;bottom=0;fillColor=none;align=left;verticalAlign=top;spacingLeft=4;spacingRight=4;overflow=hidden;rotatable=0;points=[];portConstraint=eastwest;part=1;" parent="4fiELDmcAO46Hj7w_OrO-6" vertex="1" connectable="0">
          <mxGeometry width="36" height="26" as="geometry"/>
        </mxCell>
        <mxCell id="4fiELDmcAO46Hj7w_OrO-132" value="couponId" style="shape=partialRectangle;top=0;left=0;right=0;bottom=0;align=left;verticalAlign=top;fillColor=none;spacingLeft=40;spacingRight=4;overflow=hidden;rotatable=0;points=[[0,0.5],[1,0.5]];portConstraint=eastwest;dropTarget=0;rounded=0;shadow=0;strokeWidth=1;" parent="4fiELDmcAO46Hj7w_OrO-0" vertex="1">
          <mxGeometry y="78" width="160" height="26" as="geometry"/>
        </mxCell>
        <mxCell id="4fiELDmcAO46Hj7w_OrO-133" value="" style="shape=partialRectangle;top=0;left=0;bottom=0;fillColor=none;align=left;verticalAlign=top;spacingLeft=4;spacingRight=4;overflow=hidden;rotatable=0;points=[];portConstraint=eastwest;part=1;" parent="4fiELDmcAO46Hj7w_OrO-132" vertex="1" connectable="0">
          <mxGeometry width="36" height="26" as="geometry"/>
        </mxCell>
        <mxCell id="4fiELDmcAO46Hj7w_OrO-93" value="subTotal" style="shape=partialRectangle;top=0;left=0;right=0;bottom=0;align=left;verticalAlign=top;fillColor=none;spacingLeft=40;spacingRight=4;overflow=hidden;rotatable=0;points=[[0,0.5],[1,0.5]];portConstraint=eastwest;dropTarget=0;rounded=0;shadow=0;strokeWidth=1;" parent="4fiELDmcAO46Hj7w_OrO-0" vertex="1">
          <mxGeometry y="104" width="160" height="26" as="geometry"/>
        </mxCell>
        <mxCell id="4fiELDmcAO46Hj7w_OrO-94" value="" style="shape=partialRectangle;top=0;left=0;bottom=0;fillColor=none;align=left;verticalAlign=top;spacingLeft=4;spacingRight=4;overflow=hidden;rotatable=0;points=[];portConstraint=eastwest;part=1;" parent="4fiELDmcAO46Hj7w_OrO-93" vertex="1" connectable="0">
          <mxGeometry width="36" height="26" as="geometry"/>
        </mxCell>
        <mxCell id="4fiELDmcAO46Hj7w_OrO-95" value="discountAmount" style="shape=partialRectangle;top=0;left=0;right=0;bottom=0;align=left;verticalAlign=top;fillColor=none;spacingLeft=40;spacingRight=4;overflow=hidden;rotatable=0;points=[[0,0.5],[1,0.5]];portConstraint=eastwest;dropTarget=0;rounded=0;shadow=0;strokeWidth=1;" parent="4fiELDmcAO46Hj7w_OrO-0" vertex="1">
          <mxGeometry y="130" width="160" height="26" as="geometry"/>
        </mxCell>
        <mxCell id="4fiELDmcAO46Hj7w_OrO-96" value="" style="shape=partialRectangle;top=0;left=0;bottom=0;fillColor=none;align=left;verticalAlign=top;spacingLeft=4;spacingRight=4;overflow=hidden;rotatable=0;points=[];portConstraint=eastwest;part=1;" parent="4fiELDmcAO46Hj7w_OrO-95" vertex="1" connectable="0">
          <mxGeometry width="36" height="26" as="geometry"/>
        </mxCell>
        <mxCell id="4fiELDmcAO46Hj7w_OrO-97" value="discountPercent" style="shape=partialRectangle;top=0;left=0;right=0;bottom=0;align=left;verticalAlign=top;fillColor=none;spacingLeft=40;spacingRight=4;overflow=hidden;rotatable=0;points=[[0,0.5],[1,0.5]];portConstraint=eastwest;dropTarget=0;rounded=0;shadow=0;strokeWidth=1;" parent="4fiELDmcAO46Hj7w_OrO-0" vertex="1">
          <mxGeometry y="156" width="160" height="26" as="geometry"/>
        </mxCell>
        <mxCell id="4fiELDmcAO46Hj7w_OrO-98" value="" style="shape=partialRectangle;top=0;left=0;bottom=0;fillColor=none;align=left;verticalAlign=top;spacingLeft=4;spacingRight=4;overflow=hidden;rotatable=0;points=[];portConstraint=eastwest;part=1;" parent="4fiELDmcAO46Hj7w_OrO-97" vertex="1" connectable="0">
          <mxGeometry width="36" height="26" as="geometry"/>
        </mxCell>
        <mxCell id="4fiELDmcAO46Hj7w_OrO-99" value="discountTotal" style="shape=partialRectangle;top=0;left=0;right=0;bottom=0;align=left;verticalAlign=top;fillColor=none;spacingLeft=40;spacingRight=4;overflow=hidden;rotatable=0;points=[[0,0.5],[1,0.5]];portConstraint=eastwest;dropTarget=0;rounded=0;shadow=0;strokeWidth=1;" parent="4fiELDmcAO46Hj7w_OrO-0" vertex="1">
          <mxGeometry y="182" width="160" height="26" as="geometry"/>
        </mxCell>
        <mxCell id="4fiELDmcAO46Hj7w_OrO-100" value="" style="shape=partialRectangle;top=0;left=0;bottom=0;fillColor=none;align=left;verticalAlign=top;spacingLeft=4;spacingRight=4;overflow=hidden;rotatable=0;points=[];portConstraint=eastwest;part=1;" parent="4fiELDmcAO46Hj7w_OrO-99" vertex="1" connectable="0">
          <mxGeometry width="36" height="26" as="geometry"/>
        </mxCell>
        <mxCell id="4fiELDmcAO46Hj7w_OrO-101" value="discountedSubTotal" style="shape=partialRectangle;top=0;left=0;right=0;bottom=0;align=left;verticalAlign=top;fillColor=none;spacingLeft=40;spacingRight=4;overflow=hidden;rotatable=0;points=[[0,0.5],[1,0.5]];portConstraint=eastwest;dropTarget=0;rounded=0;shadow=0;strokeWidth=1;" parent="4fiELDmcAO46Hj7w_OrO-0" vertex="1">
          <mxGeometry y="208" width="160" height="26" as="geometry"/>
        </mxCell>
        <mxCell id="4fiELDmcAO46Hj7w_OrO-102" value="" style="shape=partialRectangle;top=0;left=0;bottom=0;fillColor=none;align=left;verticalAlign=top;spacingLeft=4;spacingRight=4;overflow=hidden;rotatable=0;points=[];portConstraint=eastwest;part=1;" parent="4fiELDmcAO46Hj7w_OrO-101" vertex="1" connectable="0">
          <mxGeometry width="36" height="26" as="geometry"/>
        </mxCell>
        <mxCell id="4fiELDmcAO46Hj7w_OrO-91" value="grandTotal" style="shape=partialRectangle;top=0;left=0;right=0;bottom=0;align=left;verticalAlign=top;fillColor=none;spacingLeft=40;spacingRight=4;overflow=hidden;rotatable=0;points=[[0,0.5],[1,0.5]];portConstraint=eastwest;dropTarget=0;rounded=0;shadow=0;strokeWidth=1;" parent="4fiELDmcAO46Hj7w_OrO-0" vertex="1">
          <mxGeometry y="234" width="160" height="26" as="geometry"/>
        </mxCell>
        <mxCell id="4fiELDmcAO46Hj7w_OrO-92" value="" style="shape=partialRectangle;top=0;left=0;bottom=0;fillColor=none;align=left;verticalAlign=top;spacingLeft=4;spacingRight=4;overflow=hidden;rotatable=0;points=[];portConstraint=eastwest;part=1;" parent="4fiELDmcAO46Hj7w_OrO-91" vertex="1" connectable="0">
          <mxGeometry width="36" height="26" as="geometry"/>
        </mxCell>
        <mxCell id="4fiELDmcAO46Hj7w_OrO-8" value="createdAt" style="shape=partialRectangle;top=0;left=0;right=0;bottom=0;align=left;verticalAlign=top;fillColor=none;spacingLeft=40;spacingRight=4;overflow=hidden;rotatable=0;points=[[0,0.5],[1,0.5]];portConstraint=eastwest;dropTarget=0;rounded=0;shadow=0;strokeWidth=1;" parent="4fiELDmcAO46Hj7w_OrO-0" vertex="1">
          <mxGeometry y="260" width="160" height="26" as="geometry"/>
        </mxCell>
        <mxCell id="4fiELDmcAO46Hj7w_OrO-9" value="" style="shape=partialRectangle;top=0;left=0;bottom=0;fillColor=none;align=left;verticalAlign=top;spacingLeft=4;spacingRight=4;overflow=hidden;rotatable=0;points=[];portConstraint=eastwest;part=1;" parent="4fiELDmcAO46Hj7w_OrO-8" vertex="1" connectable="0">
          <mxGeometry width="36" height="26" as="geometry"/>
        </mxCell>
        <mxCell id="4fiELDmcAO46Hj7w_OrO-10" value="createdBy" style="shape=partialRectangle;top=0;left=0;right=0;bottom=0;align=left;verticalAlign=top;fillColor=none;spacingLeft=40;spacingRight=4;overflow=hidden;rotatable=0;points=[[0,0.5],[1,0.5]];portConstraint=eastwest;dropTarget=0;rounded=0;shadow=0;strokeWidth=1;" parent="4fiELDmcAO46Hj7w_OrO-0" vertex="1">
          <mxGeometry y="286" width="160" height="26" as="geometry"/>
        </mxCell>
        <mxCell id="4fiELDmcAO46Hj7w_OrO-11" value="" style="shape=partialRectangle;top=0;left=0;bottom=0;fillColor=none;align=left;verticalAlign=top;spacingLeft=4;spacingRight=4;overflow=hidden;rotatable=0;points=[];portConstraint=eastwest;part=1;" parent="4fiELDmcAO46Hj7w_OrO-10" vertex="1" connectable="0">
          <mxGeometry width="36" height="26" as="geometry"/>
        </mxCell>
        <mxCell id="4fiELDmcAO46Hj7w_OrO-12" value="deletedAt" style="shape=partialRectangle;top=0;left=0;right=0;bottom=0;align=left;verticalAlign=top;fillColor=none;spacingLeft=40;spacingRight=4;overflow=hidden;rotatable=0;points=[[0,0.5],[1,0.5]];portConstraint=eastwest;dropTarget=0;rounded=0;shadow=0;strokeWidth=1;" parent="4fiELDmcAO46Hj7w_OrO-0" vertex="1">
          <mxGeometry y="312" width="160" height="26" as="geometry"/>
        </mxCell>
        <mxCell id="4fiELDmcAO46Hj7w_OrO-13" value="" style="shape=partialRectangle;top=0;left=0;bottom=0;fillColor=none;align=left;verticalAlign=top;spacingLeft=4;spacingRight=4;overflow=hidden;rotatable=0;points=[];portConstraint=eastwest;part=1;" parent="4fiELDmcAO46Hj7w_OrO-12" vertex="1" connectable="0">
          <mxGeometry width="36" height="26" as="geometry"/>
        </mxCell>
        <mxCell id="4fiELDmcAO46Hj7w_OrO-14" value="deletedBy" style="shape=partialRectangle;top=0;left=0;right=0;bottom=0;align=left;verticalAlign=top;fillColor=none;spacingLeft=40;spacingRight=4;overflow=hidden;rotatable=0;points=[[0,0.5],[1,0.5]];portConstraint=eastwest;dropTarget=0;rounded=0;shadow=0;strokeWidth=1;" parent="4fiELDmcAO46Hj7w_OrO-0" vertex="1">
          <mxGeometry y="338" width="160" height="26" as="geometry"/>
        </mxCell>
        <mxCell id="4fiELDmcAO46Hj7w_OrO-15" value="" style="shape=partialRectangle;top=0;left=0;bottom=0;fillColor=none;align=left;verticalAlign=top;spacingLeft=4;spacingRight=4;overflow=hidden;rotatable=0;points=[];portConstraint=eastwest;part=1;" parent="4fiELDmcAO46Hj7w_OrO-14" vertex="1" connectable="0">
          <mxGeometry width="36" height="26" as="geometry"/>
        </mxCell>
        <mxCell id="4fiELDmcAO46Hj7w_OrO-16" value="CartItems" style="swimlane;fontStyle=1;childLayout=stackLayout;horizontal=1;startSize=26;horizontalStack=0;resizeParent=1;resizeLast=0;collapsible=1;marginBottom=0;rounded=0;shadow=0;strokeWidth=1;" parent="WIyWlLk6GJQsqaUBKTNV-1" vertex="1">
          <mxGeometry x="590" y="940" width="160" height="260" as="geometry">
            <mxRectangle x="20" y="80" width="160" height="26" as="alternateBounds"/>
          </mxGeometry>
        </mxCell>
        <mxCell id="4fiELDmcAO46Hj7w_OrO-17" value="Id" style="shape=partialRectangle;top=0;left=0;right=0;bottom=1;align=left;verticalAlign=top;fillColor=none;spacingLeft=40;spacingRight=4;overflow=hidden;rotatable=0;points=[[0,0.5],[1,0.5]];portConstraint=eastwest;dropTarget=0;rounded=0;shadow=0;strokeWidth=1;fontStyle=4" parent="4fiELDmcAO46Hj7w_OrO-16" vertex="1">
          <mxGeometry y="26" width="160" height="26" as="geometry"/>
        </mxCell>
        <mxCell id="4fiELDmcAO46Hj7w_OrO-18" value="PK" style="shape=partialRectangle;top=0;left=0;bottom=0;fillColor=none;align=left;verticalAlign=top;spacingLeft=4;spacingRight=4;overflow=hidden;rotatable=0;points=[];portConstraint=eastwest;part=1;" parent="4fiELDmcAO46Hj7w_OrO-17" vertex="1" connectable="0">
          <mxGeometry width="36" height="26" as="geometry"/>
        </mxCell>
        <mxCell id="4fiELDmcAO46Hj7w_OrO-21" value="cartId" style="shape=partialRectangle;top=0;left=0;right=0;bottom=0;align=left;verticalAlign=top;fillColor=none;spacingLeft=40;spacingRight=4;overflow=hidden;rotatable=0;points=[[0,0.5],[1,0.5]];portConstraint=eastwest;dropTarget=0;rounded=0;shadow=0;strokeWidth=1;" parent="4fiELDmcAO46Hj7w_OrO-16" vertex="1">
          <mxGeometry y="52" width="160" height="26" as="geometry"/>
        </mxCell>
        <mxCell id="4fiELDmcAO46Hj7w_OrO-22" value="FK" style="shape=partialRectangle;top=0;left=0;bottom=0;fillColor=none;align=left;verticalAlign=top;spacingLeft=4;spacingRight=4;overflow=hidden;rotatable=0;points=[];portConstraint=eastwest;part=1;" parent="4fiELDmcAO46Hj7w_OrO-21" vertex="1" connectable="0">
          <mxGeometry width="36" height="26" as="geometry"/>
        </mxCell>
        <mxCell id="4fiELDmcAO46Hj7w_OrO-31" value="productId" style="shape=partialRectangle;top=0;left=0;right=0;bottom=0;align=left;verticalAlign=top;fillColor=none;spacingLeft=40;spacingRight=4;overflow=hidden;rotatable=0;points=[[0,0.5],[1,0.5]];portConstraint=eastwest;dropTarget=0;rounded=0;shadow=0;strokeWidth=1;" parent="4fiELDmcAO46Hj7w_OrO-16" vertex="1">
          <mxGeometry y="78" width="160" height="26" as="geometry"/>
        </mxCell>
        <mxCell id="4fiELDmcAO46Hj7w_OrO-32" value="FK" style="shape=partialRectangle;top=0;left=0;bottom=0;fillColor=none;align=left;verticalAlign=top;spacingLeft=4;spacingRight=4;overflow=hidden;rotatable=0;points=[];portConstraint=eastwest;part=1;" parent="4fiELDmcAO46Hj7w_OrO-31" vertex="1" connectable="0">
          <mxGeometry width="36" height="26" as="geometry"/>
        </mxCell>
        <mxCell id="4fiELDmcAO46Hj7w_OrO-88" value="productPromotionId" style="shape=partialRectangle;top=0;left=0;right=0;bottom=0;align=left;verticalAlign=top;fillColor=none;spacingLeft=40;spacingRight=4;overflow=hidden;rotatable=0;points=[[0,0.5],[1,0.5]];portConstraint=eastwest;dropTarget=0;rounded=0;shadow=0;strokeWidth=1;" parent="4fiELDmcAO46Hj7w_OrO-16" vertex="1">
          <mxGeometry y="104" width="160" height="26" as="geometry"/>
        </mxCell>
        <mxCell id="4fiELDmcAO46Hj7w_OrO-89" value="FK" style="shape=partialRectangle;top=0;left=0;bottom=0;fillColor=none;align=left;verticalAlign=top;spacingLeft=4;spacingRight=4;overflow=hidden;rotatable=0;points=[];portConstraint=eastwest;part=1;" parent="4fiELDmcAO46Hj7w_OrO-88" vertex="1" connectable="0">
          <mxGeometry width="36" height="26" as="geometry"/>
        </mxCell>
        <mxCell id="4fiELDmcAO46Hj7w_OrO-33" value="quantity" style="shape=partialRectangle;top=0;left=0;right=0;bottom=0;align=left;verticalAlign=top;fillColor=none;spacingLeft=40;spacingRight=4;overflow=hidden;rotatable=0;points=[[0,0.5],[1,0.5]];portConstraint=eastwest;dropTarget=0;rounded=0;shadow=0;strokeWidth=1;" parent="4fiELDmcAO46Hj7w_OrO-16" vertex="1">
          <mxGeometry y="130" width="160" height="26" as="geometry"/>
        </mxCell>
        <mxCell id="4fiELDmcAO46Hj7w_OrO-34" value="" style="shape=partialRectangle;top=0;left=0;bottom=0;fillColor=none;align=left;verticalAlign=top;spacingLeft=4;spacingRight=4;overflow=hidden;rotatable=0;points=[];portConstraint=eastwest;part=1;" parent="4fiELDmcAO46Hj7w_OrO-33" vertex="1" connectable="0">
          <mxGeometry width="36" height="26" as="geometry"/>
        </mxCell>
        <mxCell id="4fiELDmcAO46Hj7w_OrO-23" value="createdAt" style="shape=partialRectangle;top=0;left=0;right=0;bottom=0;align=left;verticalAlign=top;fillColor=none;spacingLeft=40;spacingRight=4;overflow=hidden;rotatable=0;points=[[0,0.5],[1,0.5]];portConstraint=eastwest;dropTarget=0;rounded=0;shadow=0;strokeWidth=1;" parent="4fiELDmcAO46Hj7w_OrO-16" vertex="1">
          <mxGeometry y="156" width="160" height="26" as="geometry"/>
        </mxCell>
        <mxCell id="4fiELDmcAO46Hj7w_OrO-24" value="" style="shape=partialRectangle;top=0;left=0;bottom=0;fillColor=none;align=left;verticalAlign=top;spacingLeft=4;spacingRight=4;overflow=hidden;rotatable=0;points=[];portConstraint=eastwest;part=1;" parent="4fiELDmcAO46Hj7w_OrO-23" vertex="1" connectable="0">
          <mxGeometry width="36" height="26" as="geometry"/>
        </mxCell>
        <mxCell id="4fiELDmcAO46Hj7w_OrO-25" value="createdBy" style="shape=partialRectangle;top=0;left=0;right=0;bottom=0;align=left;verticalAlign=top;fillColor=none;spacingLeft=40;spacingRight=4;overflow=hidden;rotatable=0;points=[[0,0.5],[1,0.5]];portConstraint=eastwest;dropTarget=0;rounded=0;shadow=0;strokeWidth=1;" parent="4fiELDmcAO46Hj7w_OrO-16" vertex="1">
          <mxGeometry y="182" width="160" height="26" as="geometry"/>
        </mxCell>
        <mxCell id="4fiELDmcAO46Hj7w_OrO-26" value="" style="shape=partialRectangle;top=0;left=0;bottom=0;fillColor=none;align=left;verticalAlign=top;spacingLeft=4;spacingRight=4;overflow=hidden;rotatable=0;points=[];portConstraint=eastwest;part=1;" parent="4fiELDmcAO46Hj7w_OrO-25" vertex="1" connectable="0">
          <mxGeometry width="36" height="26" as="geometry"/>
        </mxCell>
        <mxCell id="4fiELDmcAO46Hj7w_OrO-27" value="deletedAt" style="shape=partialRectangle;top=0;left=0;right=0;bottom=0;align=left;verticalAlign=top;fillColor=none;spacingLeft=40;spacingRight=4;overflow=hidden;rotatable=0;points=[[0,0.5],[1,0.5]];portConstraint=eastwest;dropTarget=0;rounded=0;shadow=0;strokeWidth=1;" parent="4fiELDmcAO46Hj7w_OrO-16" vertex="1">
          <mxGeometry y="208" width="160" height="26" as="geometry"/>
        </mxCell>
        <mxCell id="4fiELDmcAO46Hj7w_OrO-28" value="" style="shape=partialRectangle;top=0;left=0;bottom=0;fillColor=none;align=left;verticalAlign=top;spacingLeft=4;spacingRight=4;overflow=hidden;rotatable=0;points=[];portConstraint=eastwest;part=1;" parent="4fiELDmcAO46Hj7w_OrO-27" vertex="1" connectable="0">
          <mxGeometry width="36" height="26" as="geometry"/>
        </mxCell>
        <mxCell id="4fiELDmcAO46Hj7w_OrO-29" value="deletedBy" style="shape=partialRectangle;top=0;left=0;right=0;bottom=0;align=left;verticalAlign=top;fillColor=none;spacingLeft=40;spacingRight=4;overflow=hidden;rotatable=0;points=[[0,0.5],[1,0.5]];portConstraint=eastwest;dropTarget=0;rounded=0;shadow=0;strokeWidth=1;" parent="4fiELDmcAO46Hj7w_OrO-16" vertex="1">
          <mxGeometry y="234" width="160" height="26" as="geometry"/>
        </mxCell>
        <mxCell id="4fiELDmcAO46Hj7w_OrO-30" value="" style="shape=partialRectangle;top=0;left=0;bottom=0;fillColor=none;align=left;verticalAlign=top;spacingLeft=4;spacingRight=4;overflow=hidden;rotatable=0;points=[];portConstraint=eastwest;part=1;" parent="4fiELDmcAO46Hj7w_OrO-29" vertex="1" connectable="0">
          <mxGeometry width="36" height="26" as="geometry"/>
        </mxCell>
        <mxCell id="4fiELDmcAO46Hj7w_OrO-35" style="edgeStyle=orthogonalEdgeStyle;rounded=0;orthogonalLoop=1;jettySize=auto;html=1;exitX=1;exitY=0.5;exitDx=0;exitDy=0;entryX=1;entryY=0.5;entryDx=0;entryDy=0;" parent="WIyWlLk6GJQsqaUBKTNV-1" source="4fiELDmcAO46Hj7w_OrO-21" target="4fiELDmcAO46Hj7w_OrO-1" edge="1">
          <mxGeometry relative="1" as="geometry"/>
        </mxCell>
        <mxCell id="4fiELDmcAO46Hj7w_OrO-36" style="edgeStyle=orthogonalEdgeStyle;rounded=0;orthogonalLoop=1;jettySize=auto;html=1;exitX=0;exitY=0.5;exitDx=0;exitDy=0;" parent="WIyWlLk6GJQsqaUBKTNV-1" source="4fiELDmcAO46Hj7w_OrO-31" target="m11ruYbN7Bz_lJd7NWIb-1" edge="1">
          <mxGeometry relative="1" as="geometry"/>
        </mxCell>
        <mxCell id="4fiELDmcAO46Hj7w_OrO-39" style="edgeStyle=orthogonalEdgeStyle;rounded=0;orthogonalLoop=1;jettySize=auto;html=1;exitX=1;exitY=0.5;exitDx=0;exitDy=0;entryX=1;entryY=0.5;entryDx=0;entryDy=0;" parent="WIyWlLk6GJQsqaUBKTNV-1" source="4fiELDmcAO46Hj7w_OrO-37" target="4fiELDmcAO46Hj7w_OrO-1" edge="1">
          <mxGeometry relative="1" as="geometry"/>
        </mxCell>
        <mxCell id="4fiELDmcAO46Hj7w_OrO-40" value="OrderItems" style="swimlane;fontStyle=1;childLayout=stackLayout;horizontal=1;startSize=26;horizontalStack=0;resizeParent=1;resizeLast=0;collapsible=1;marginBottom=0;rounded=0;shadow=0;strokeWidth=1;" parent="WIyWlLk6GJQsqaUBKTNV-1" vertex="1">
          <mxGeometry x="370" y="-20" width="160" height="234" as="geometry">
            <mxRectangle x="20" y="80" width="160" height="26" as="alternateBounds"/>
          </mxGeometry>
        </mxCell>
        <mxCell id="4fiELDmcAO46Hj7w_OrO-41" value="Id" style="shape=partialRectangle;top=0;left=0;right=0;bottom=1;align=left;verticalAlign=top;fillColor=none;spacingLeft=40;spacingRight=4;overflow=hidden;rotatable=0;points=[[0,0.5],[1,0.5]];portConstraint=eastwest;dropTarget=0;rounded=0;shadow=0;strokeWidth=1;fontStyle=4" parent="4fiELDmcAO46Hj7w_OrO-40" vertex="1">
          <mxGeometry y="26" width="160" height="26" as="geometry"/>
        </mxCell>
        <mxCell id="4fiELDmcAO46Hj7w_OrO-42" value="PK" style="shape=partialRectangle;top=0;left=0;bottom=0;fillColor=none;align=left;verticalAlign=top;spacingLeft=4;spacingRight=4;overflow=hidden;rotatable=0;points=[];portConstraint=eastwest;part=1;" parent="4fiELDmcAO46Hj7w_OrO-41" vertex="1" connectable="0">
          <mxGeometry width="36" height="26" as="geometry"/>
        </mxCell>
        <mxCell id="4fiELDmcAO46Hj7w_OrO-43" value="orderId" style="shape=partialRectangle;top=0;left=0;right=0;bottom=0;align=left;verticalAlign=top;fillColor=none;spacingLeft=40;spacingRight=4;overflow=hidden;rotatable=0;points=[[0,0.5],[1,0.5]];portConstraint=eastwest;dropTarget=0;rounded=0;shadow=0;strokeWidth=1;" parent="4fiELDmcAO46Hj7w_OrO-40" vertex="1">
          <mxGeometry y="52" width="160" height="26" as="geometry"/>
        </mxCell>
        <mxCell id="4fiELDmcAO46Hj7w_OrO-44" value="FK" style="shape=partialRectangle;top=0;left=0;bottom=0;fillColor=none;align=left;verticalAlign=top;spacingLeft=4;spacingRight=4;overflow=hidden;rotatable=0;points=[];portConstraint=eastwest;part=1;" parent="4fiELDmcAO46Hj7w_OrO-43" vertex="1" connectable="0">
          <mxGeometry width="36" height="26" as="geometry"/>
        </mxCell>
        <mxCell id="4fiELDmcAO46Hj7w_OrO-45" value="productId" style="shape=partialRectangle;top=0;left=0;right=0;bottom=0;align=left;verticalAlign=top;fillColor=none;spacingLeft=40;spacingRight=4;overflow=hidden;rotatable=0;points=[[0,0.5],[1,0.5]];portConstraint=eastwest;dropTarget=0;rounded=0;shadow=0;strokeWidth=1;" parent="4fiELDmcAO46Hj7w_OrO-40" vertex="1">
          <mxGeometry y="78" width="160" height="26" as="geometry"/>
        </mxCell>
        <mxCell id="4fiELDmcAO46Hj7w_OrO-46" value="FK" style="shape=partialRectangle;top=0;left=0;bottom=0;fillColor=none;align=left;verticalAlign=top;spacingLeft=4;spacingRight=4;overflow=hidden;rotatable=0;points=[];portConstraint=eastwest;part=1;" parent="4fiELDmcAO46Hj7w_OrO-45" vertex="1" connectable="0">
          <mxGeometry width="36" height="26" as="geometry"/>
        </mxCell>
        <mxCell id="4fiELDmcAO46Hj7w_OrO-47" value="quantity" style="shape=partialRectangle;top=0;left=0;right=0;bottom=0;align=left;verticalAlign=top;fillColor=none;spacingLeft=40;spacingRight=4;overflow=hidden;rotatable=0;points=[[0,0.5],[1,0.5]];portConstraint=eastwest;dropTarget=0;rounded=0;shadow=0;strokeWidth=1;" parent="4fiELDmcAO46Hj7w_OrO-40" vertex="1">
          <mxGeometry y="104" width="160" height="26" as="geometry"/>
        </mxCell>
        <mxCell id="4fiELDmcAO46Hj7w_OrO-48" value="" style="shape=partialRectangle;top=0;left=0;bottom=0;fillColor=none;align=left;verticalAlign=top;spacingLeft=4;spacingRight=4;overflow=hidden;rotatable=0;points=[];portConstraint=eastwest;part=1;" parent="4fiELDmcAO46Hj7w_OrO-47" vertex="1" connectable="0">
          <mxGeometry width="36" height="26" as="geometry"/>
        </mxCell>
        <mxCell id="4fiELDmcAO46Hj7w_OrO-49" value="createdAt" style="shape=partialRectangle;top=0;left=0;right=0;bottom=0;align=left;verticalAlign=top;fillColor=none;spacingLeft=40;spacingRight=4;overflow=hidden;rotatable=0;points=[[0,0.5],[1,0.5]];portConstraint=eastwest;dropTarget=0;rounded=0;shadow=0;strokeWidth=1;" parent="4fiELDmcAO46Hj7w_OrO-40" vertex="1">
          <mxGeometry y="130" width="160" height="26" as="geometry"/>
        </mxCell>
        <mxCell id="4fiELDmcAO46Hj7w_OrO-50" value="" style="shape=partialRectangle;top=0;left=0;bottom=0;fillColor=none;align=left;verticalAlign=top;spacingLeft=4;spacingRight=4;overflow=hidden;rotatable=0;points=[];portConstraint=eastwest;part=1;" parent="4fiELDmcAO46Hj7w_OrO-49" vertex="1" connectable="0">
          <mxGeometry width="36" height="26" as="geometry"/>
        </mxCell>
        <mxCell id="4fiELDmcAO46Hj7w_OrO-51" value="createdBy" style="shape=partialRectangle;top=0;left=0;right=0;bottom=0;align=left;verticalAlign=top;fillColor=none;spacingLeft=40;spacingRight=4;overflow=hidden;rotatable=0;points=[[0,0.5],[1,0.5]];portConstraint=eastwest;dropTarget=0;rounded=0;shadow=0;strokeWidth=1;" parent="4fiELDmcAO46Hj7w_OrO-40" vertex="1">
          <mxGeometry y="156" width="160" height="26" as="geometry"/>
        </mxCell>
        <mxCell id="4fiELDmcAO46Hj7w_OrO-52" value="" style="shape=partialRectangle;top=0;left=0;bottom=0;fillColor=none;align=left;verticalAlign=top;spacingLeft=4;spacingRight=4;overflow=hidden;rotatable=0;points=[];portConstraint=eastwest;part=1;" parent="4fiELDmcAO46Hj7w_OrO-51" vertex="1" connectable="0">
          <mxGeometry width="36" height="26" as="geometry"/>
        </mxCell>
        <mxCell id="4fiELDmcAO46Hj7w_OrO-53" value="deletedAt" style="shape=partialRectangle;top=0;left=0;right=0;bottom=0;align=left;verticalAlign=top;fillColor=none;spacingLeft=40;spacingRight=4;overflow=hidden;rotatable=0;points=[[0,0.5],[1,0.5]];portConstraint=eastwest;dropTarget=0;rounded=0;shadow=0;strokeWidth=1;" parent="4fiELDmcAO46Hj7w_OrO-40" vertex="1">
          <mxGeometry y="182" width="160" height="26" as="geometry"/>
        </mxCell>
        <mxCell id="4fiELDmcAO46Hj7w_OrO-54" value="" style="shape=partialRectangle;top=0;left=0;bottom=0;fillColor=none;align=left;verticalAlign=top;spacingLeft=4;spacingRight=4;overflow=hidden;rotatable=0;points=[];portConstraint=eastwest;part=1;" parent="4fiELDmcAO46Hj7w_OrO-53" vertex="1" connectable="0">
          <mxGeometry width="36" height="26" as="geometry"/>
        </mxCell>
        <mxCell id="4fiELDmcAO46Hj7w_OrO-55" value="deletedBy" style="shape=partialRectangle;top=0;left=0;right=0;bottom=0;align=left;verticalAlign=top;fillColor=none;spacingLeft=40;spacingRight=4;overflow=hidden;rotatable=0;points=[[0,0.5],[1,0.5]];portConstraint=eastwest;dropTarget=0;rounded=0;shadow=0;strokeWidth=1;" parent="4fiELDmcAO46Hj7w_OrO-40" vertex="1">
          <mxGeometry y="208" width="160" height="26" as="geometry"/>
        </mxCell>
        <mxCell id="4fiELDmcAO46Hj7w_OrO-56" value="" style="shape=partialRectangle;top=0;left=0;bottom=0;fillColor=none;align=left;verticalAlign=top;spacingLeft=4;spacingRight=4;overflow=hidden;rotatable=0;points=[];portConstraint=eastwest;part=1;" parent="4fiELDmcAO46Hj7w_OrO-55" vertex="1" connectable="0">
          <mxGeometry width="36" height="26" as="geometry"/>
        </mxCell>
        <mxCell id="4fiELDmcAO46Hj7w_OrO-59" style="edgeStyle=orthogonalEdgeStyle;rounded=0;orthogonalLoop=1;jettySize=auto;html=1;exitX=0;exitY=0.5;exitDx=0;exitDy=0;entryX=1;entryY=0.5;entryDx=0;entryDy=0;" parent="WIyWlLk6GJQsqaUBKTNV-1" source="4fiELDmcAO46Hj7w_OrO-45" target="m11ruYbN7Bz_lJd7NWIb-1" edge="1">
          <mxGeometry relative="1" as="geometry"/>
        </mxCell>
        <mxCell id="4fiELDmcAO46Hj7w_OrO-60" style="edgeStyle=orthogonalEdgeStyle;rounded=0;orthogonalLoop=1;jettySize=auto;html=1;exitX=1;exitY=0.5;exitDx=0;exitDy=0;entryX=0;entryY=0.5;entryDx=0;entryDy=0;" parent="WIyWlLk6GJQsqaUBKTNV-1" source="4fiELDmcAO46Hj7w_OrO-43" target="zkfFHV4jXpPFQw0GAbJ--57" edge="1">
          <mxGeometry relative="1" as="geometry"/>
        </mxCell>
        <mxCell id="4fiELDmcAO46Hj7w_OrO-61" value="ProductPromotions" style="swimlane;fontStyle=1;childLayout=stackLayout;horizontal=1;startSize=26;horizontalStack=0;resizeParent=1;resizeLast=0;collapsible=1;marginBottom=0;rounded=0;shadow=0;strokeWidth=1;" parent="WIyWlLk6GJQsqaUBKTNV-1" vertex="1">
          <mxGeometry x="300" y="580" width="160" height="312" as="geometry">
            <mxRectangle x="20" y="80" width="160" height="26" as="alternateBounds"/>
          </mxGeometry>
        </mxCell>
        <mxCell id="4fiELDmcAO46Hj7w_OrO-62" value="Id" style="shape=partialRectangle;top=0;left=0;right=0;bottom=1;align=left;verticalAlign=top;fillColor=none;spacingLeft=40;spacingRight=4;overflow=hidden;rotatable=0;points=[[0,0.5],[1,0.5]];portConstraint=eastwest;dropTarget=0;rounded=0;shadow=0;strokeWidth=1;fontStyle=4" parent="4fiELDmcAO46Hj7w_OrO-61" vertex="1">
          <mxGeometry y="26" width="160" height="26" as="geometry"/>
        </mxCell>
        <mxCell id="4fiELDmcAO46Hj7w_OrO-63" value="PK" style="shape=partialRectangle;top=0;left=0;bottom=0;fillColor=none;align=left;verticalAlign=top;spacingLeft=4;spacingRight=4;overflow=hidden;rotatable=0;points=[];portConstraint=eastwest;part=1;" parent="4fiELDmcAO46Hj7w_OrO-62" vertex="1" connectable="0">
          <mxGeometry width="36" height="26" as="geometry"/>
        </mxCell>
        <mxCell id="4fiELDmcAO46Hj7w_OrO-67" value="productId" style="shape=partialRectangle;top=0;left=0;right=0;bottom=0;align=left;verticalAlign=top;fillColor=none;spacingLeft=40;spacingRight=4;overflow=hidden;rotatable=0;points=[[0,0.5],[1,0.5]];portConstraint=eastwest;dropTarget=0;rounded=0;shadow=0;strokeWidth=1;" parent="4fiELDmcAO46Hj7w_OrO-61" vertex="1">
          <mxGeometry y="52" width="160" height="26" as="geometry"/>
        </mxCell>
        <mxCell id="4fiELDmcAO46Hj7w_OrO-68" value="FK" style="shape=partialRectangle;top=0;left=0;bottom=0;fillColor=none;align=left;verticalAlign=top;spacingLeft=4;spacingRight=4;overflow=hidden;rotatable=0;points=[];portConstraint=eastwest;part=1;" parent="4fiELDmcAO46Hj7w_OrO-67" vertex="1" connectable="0">
          <mxGeometry width="36" height="26" as="geometry"/>
        </mxCell>
        <mxCell id="4fiELDmcAO46Hj7w_OrO-79" value="discount" style="shape=partialRectangle;top=0;left=0;right=0;bottom=0;align=left;verticalAlign=top;fillColor=none;spacingLeft=40;spacingRight=4;overflow=hidden;rotatable=0;points=[[0,0.5],[1,0.5]];portConstraint=eastwest;dropTarget=0;rounded=0;shadow=0;strokeWidth=1;" parent="4fiELDmcAO46Hj7w_OrO-61" vertex="1">
          <mxGeometry y="78" width="160" height="26" as="geometry"/>
        </mxCell>
        <mxCell id="4fiELDmcAO46Hj7w_OrO-80" value="" style="shape=partialRectangle;top=0;left=0;bottom=0;fillColor=none;align=left;verticalAlign=top;spacingLeft=4;spacingRight=4;overflow=hidden;rotatable=0;points=[];portConstraint=eastwest;part=1;" parent="4fiELDmcAO46Hj7w_OrO-79" vertex="1" connectable="0">
          <mxGeometry width="36" height="26" as="geometry"/>
        </mxCell>
        <mxCell id="4fiELDmcAO46Hj7w_OrO-81" value="discount_percent" style="shape=partialRectangle;top=0;left=0;right=0;bottom=0;align=left;verticalAlign=top;fillColor=none;spacingLeft=40;spacingRight=4;overflow=hidden;rotatable=0;points=[[0,0.5],[1,0.5]];portConstraint=eastwest;dropTarget=0;rounded=0;shadow=0;strokeWidth=1;" parent="4fiELDmcAO46Hj7w_OrO-61" vertex="1">
          <mxGeometry y="104" width="160" height="26" as="geometry"/>
        </mxCell>
        <mxCell id="4fiELDmcAO46Hj7w_OrO-82" value="" style="shape=partialRectangle;top=0;left=0;bottom=0;fillColor=none;align=left;verticalAlign=top;spacingLeft=4;spacingRight=4;overflow=hidden;rotatable=0;points=[];portConstraint=eastwest;part=1;" parent="4fiELDmcAO46Hj7w_OrO-81" vertex="1" connectable="0">
          <mxGeometry width="36" height="26" as="geometry"/>
        </mxCell>
        <mxCell id="4fiELDmcAO46Hj7w_OrO-84" value="start" style="shape=partialRectangle;top=0;left=0;right=0;bottom=0;align=left;verticalAlign=top;fillColor=none;spacingLeft=40;spacingRight=4;overflow=hidden;rotatable=0;points=[[0,0.5],[1,0.5]];portConstraint=eastwest;dropTarget=0;rounded=0;shadow=0;strokeWidth=1;" parent="4fiELDmcAO46Hj7w_OrO-61" vertex="1">
          <mxGeometry y="130" width="160" height="26" as="geometry"/>
        </mxCell>
        <mxCell id="4fiELDmcAO46Hj7w_OrO-85" value="" style="shape=partialRectangle;top=0;left=0;bottom=0;fillColor=none;align=left;verticalAlign=top;spacingLeft=4;spacingRight=4;overflow=hidden;rotatable=0;points=[];portConstraint=eastwest;part=1;" parent="4fiELDmcAO46Hj7w_OrO-84" vertex="1" connectable="0">
          <mxGeometry width="36" height="26" as="geometry"/>
        </mxCell>
        <mxCell id="4fiELDmcAO46Hj7w_OrO-86" value="end" style="shape=partialRectangle;top=0;left=0;right=0;bottom=0;align=left;verticalAlign=top;fillColor=none;spacingLeft=40;spacingRight=4;overflow=hidden;rotatable=0;points=[[0,0.5],[1,0.5]];portConstraint=eastwest;dropTarget=0;rounded=0;shadow=0;strokeWidth=1;" parent="4fiELDmcAO46Hj7w_OrO-61" vertex="1">
          <mxGeometry y="156" width="160" height="26" as="geometry"/>
        </mxCell>
        <mxCell id="4fiELDmcAO46Hj7w_OrO-87" value="" style="shape=partialRectangle;top=0;left=0;bottom=0;fillColor=none;align=left;verticalAlign=top;spacingLeft=4;spacingRight=4;overflow=hidden;rotatable=0;points=[];portConstraint=eastwest;part=1;" parent="4fiELDmcAO46Hj7w_OrO-86" vertex="1" connectable="0">
          <mxGeometry width="36" height="26" as="geometry"/>
        </mxCell>
        <mxCell id="4fiELDmcAO46Hj7w_OrO-77" value="userIds (String comma seperated null if for all)" style="shape=partialRectangle;top=0;left=0;right=0;bottom=0;align=left;verticalAlign=top;fillColor=none;spacingLeft=40;spacingRight=4;overflow=hidden;rotatable=0;points=[[0,0.5],[1,0.5]];portConstraint=eastwest;dropTarget=0;rounded=0;shadow=0;strokeWidth=1;" parent="4fiELDmcAO46Hj7w_OrO-61" vertex="1">
          <mxGeometry y="182" width="160" height="26" as="geometry"/>
        </mxCell>
        <mxCell id="4fiELDmcAO46Hj7w_OrO-78" value="" style="shape=partialRectangle;top=0;left=0;bottom=0;fillColor=none;align=left;verticalAlign=top;spacingLeft=4;spacingRight=4;overflow=hidden;rotatable=0;points=[];portConstraint=eastwest;part=1;" parent="4fiELDmcAO46Hj7w_OrO-77" vertex="1" connectable="0">
          <mxGeometry width="36" height="26" as="geometry"/>
        </mxCell>
        <mxCell id="4fiELDmcAO46Hj7w_OrO-69" value="createdAt" style="shape=partialRectangle;top=0;left=0;right=0;bottom=0;align=left;verticalAlign=top;fillColor=none;spacingLeft=40;spacingRight=4;overflow=hidden;rotatable=0;points=[[0,0.5],[1,0.5]];portConstraint=eastwest;dropTarget=0;rounded=0;shadow=0;strokeWidth=1;" parent="4fiELDmcAO46Hj7w_OrO-61" vertex="1">
          <mxGeometry y="208" width="160" height="26" as="geometry"/>
        </mxCell>
        <mxCell id="4fiELDmcAO46Hj7w_OrO-70" value="" style="shape=partialRectangle;top=0;left=0;bottom=0;fillColor=none;align=left;verticalAlign=top;spacingLeft=4;spacingRight=4;overflow=hidden;rotatable=0;points=[];portConstraint=eastwest;part=1;" parent="4fiELDmcAO46Hj7w_OrO-69" vertex="1" connectable="0">
          <mxGeometry width="36" height="26" as="geometry"/>
        </mxCell>
        <mxCell id="4fiELDmcAO46Hj7w_OrO-71" value="createdBy" style="shape=partialRectangle;top=0;left=0;right=0;bottom=0;align=left;verticalAlign=top;fillColor=none;spacingLeft=40;spacingRight=4;overflow=hidden;rotatable=0;points=[[0,0.5],[1,0.5]];portConstraint=eastwest;dropTarget=0;rounded=0;shadow=0;strokeWidth=1;" parent="4fiELDmcAO46Hj7w_OrO-61" vertex="1">
          <mxGeometry y="234" width="160" height="26" as="geometry"/>
        </mxCell>
        <mxCell id="4fiELDmcAO46Hj7w_OrO-72" value="" style="shape=partialRectangle;top=0;left=0;bottom=0;fillColor=none;align=left;verticalAlign=top;spacingLeft=4;spacingRight=4;overflow=hidden;rotatable=0;points=[];portConstraint=eastwest;part=1;" parent="4fiELDmcAO46Hj7w_OrO-71" vertex="1" connectable="0">
          <mxGeometry width="36" height="26" as="geometry"/>
        </mxCell>
        <mxCell id="4fiELDmcAO46Hj7w_OrO-73" value="deletedAt" style="shape=partialRectangle;top=0;left=0;right=0;bottom=0;align=left;verticalAlign=top;fillColor=none;spacingLeft=40;spacingRight=4;overflow=hidden;rotatable=0;points=[[0,0.5],[1,0.5]];portConstraint=eastwest;dropTarget=0;rounded=0;shadow=0;strokeWidth=1;" parent="4fiELDmcAO46Hj7w_OrO-61" vertex="1">
          <mxGeometry y="260" width="160" height="26" as="geometry"/>
        </mxCell>
        <mxCell id="4fiELDmcAO46Hj7w_OrO-74" value="" style="shape=partialRectangle;top=0;left=0;bottom=0;fillColor=none;align=left;verticalAlign=top;spacingLeft=4;spacingRight=4;overflow=hidden;rotatable=0;points=[];portConstraint=eastwest;part=1;" parent="4fiELDmcAO46Hj7w_OrO-73" vertex="1" connectable="0">
          <mxGeometry width="36" height="26" as="geometry"/>
        </mxCell>
        <mxCell id="4fiELDmcAO46Hj7w_OrO-75" value="deletedBy" style="shape=partialRectangle;top=0;left=0;right=0;bottom=0;align=left;verticalAlign=top;fillColor=none;spacingLeft=40;spacingRight=4;overflow=hidden;rotatable=0;points=[[0,0.5],[1,0.5]];portConstraint=eastwest;dropTarget=0;rounded=0;shadow=0;strokeWidth=1;" parent="4fiELDmcAO46Hj7w_OrO-61" vertex="1">
          <mxGeometry y="286" width="160" height="26" as="geometry"/>
        </mxCell>
        <mxCell id="4fiELDmcAO46Hj7w_OrO-76" value="" style="shape=partialRectangle;top=0;left=0;bottom=0;fillColor=none;align=left;verticalAlign=top;spacingLeft=4;spacingRight=4;overflow=hidden;rotatable=0;points=[];portConstraint=eastwest;part=1;" parent="4fiELDmcAO46Hj7w_OrO-75" vertex="1" connectable="0">
          <mxGeometry width="36" height="26" as="geometry"/>
        </mxCell>
        <mxCell id="4fiELDmcAO46Hj7w_OrO-83" style="edgeStyle=orthogonalEdgeStyle;rounded=0;orthogonalLoop=1;jettySize=auto;html=1;exitX=0;exitY=0.5;exitDx=0;exitDy=0;entryX=0;entryY=0.5;entryDx=0;entryDy=0;" parent="WIyWlLk6GJQsqaUBKTNV-1" source="4fiELDmcAO46Hj7w_OrO-67" target="m11ruYbN7Bz_lJd7NWIb-1" edge="1">
          <mxGeometry relative="1" as="geometry"/>
        </mxCell>
        <mxCell id="4fiELDmcAO46Hj7w_OrO-90" style="edgeStyle=orthogonalEdgeStyle;rounded=0;orthogonalLoop=1;jettySize=auto;html=1;exitX=0;exitY=0.5;exitDx=0;exitDy=0;entryX=1;entryY=0.5;entryDx=0;entryDy=0;" parent="WIyWlLk6GJQsqaUBKTNV-1" source="4fiELDmcAO46Hj7w_OrO-88" target="4fiELDmcAO46Hj7w_OrO-62" edge="1">
          <mxGeometry relative="1" as="geometry"/>
        </mxCell>
        <mxCell id="4fiELDmcAO46Hj7w_OrO-103" value="Coupons" style="swimlane;fontStyle=1;childLayout=stackLayout;horizontal=1;startSize=26;horizontalStack=0;resizeParent=1;resizeLast=0;collapsible=1;marginBottom=0;rounded=0;shadow=0;strokeWidth=1;" parent="WIyWlLk6GJQsqaUBKTNV-1" vertex="1">
          <mxGeometry x="940" y="510" width="160" height="390" as="geometry">
            <mxRectangle x="20" y="80" width="160" height="26" as="alternateBounds"/>
          </mxGeometry>
        </mxCell>
        <mxCell id="4fiELDmcAO46Hj7w_OrO-104" value="Id" style="shape=partialRectangle;top=0;left=0;right=0;bottom=1;align=left;verticalAlign=top;fillColor=none;spacingLeft=40;spacingRight=4;overflow=hidden;rotatable=0;points=[[0,0.5],[1,0.5]];portConstraint=eastwest;dropTarget=0;rounded=0;shadow=0;strokeWidth=1;fontStyle=4" parent="4fiELDmcAO46Hj7w_OrO-103" vertex="1">
          <mxGeometry y="26" width="160" height="26" as="geometry"/>
        </mxCell>
        <mxCell id="4fiELDmcAO46Hj7w_OrO-105" value="PK" style="shape=partialRectangle;top=0;left=0;bottom=0;fillColor=none;align=left;verticalAlign=top;spacingLeft=4;spacingRight=4;overflow=hidden;rotatable=0;points=[];portConstraint=eastwest;part=1;" parent="4fiELDmcAO46Hj7w_OrO-104" vertex="1" connectable="0">
          <mxGeometry width="36" height="26" as="geometry"/>
        </mxCell>
        <mxCell id="4fiELDmcAO46Hj7w_OrO-106" value="coupon" style="shape=partialRectangle;top=0;left=0;right=0;bottom=0;align=left;verticalAlign=top;fillColor=none;spacingLeft=40;spacingRight=4;overflow=hidden;rotatable=0;points=[[0,0.5],[1,0.5]];portConstraint=eastwest;dropTarget=0;rounded=0;shadow=0;strokeWidth=1;" parent="4fiELDmcAO46Hj7w_OrO-103" vertex="1">
          <mxGeometry y="52" width="160" height="26" as="geometry"/>
        </mxCell>
        <mxCell id="4fiELDmcAO46Hj7w_OrO-107" value="" style="shape=partialRectangle;top=0;left=0;bottom=0;fillColor=none;align=left;verticalAlign=top;spacingLeft=4;spacingRight=4;overflow=hidden;rotatable=0;points=[];portConstraint=eastwest;part=1;" parent="4fiELDmcAO46Hj7w_OrO-106" vertex="1" connectable="0">
          <mxGeometry width="36" height="26" as="geometry"/>
        </mxCell>
        <mxCell id="4fiELDmcAO46Hj7w_OrO-108" value="products (comma separated ids)" style="shape=partialRectangle;top=0;left=0;right=0;bottom=0;align=left;verticalAlign=top;fillColor=none;spacingLeft=40;spacingRight=4;overflow=hidden;rotatable=0;points=[[0,0.5],[1,0.5]];portConstraint=eastwest;dropTarget=0;rounded=0;shadow=0;strokeWidth=1;" parent="4fiELDmcAO46Hj7w_OrO-103" vertex="1">
          <mxGeometry y="78" width="160" height="26" as="geometry"/>
        </mxCell>
        <mxCell id="4fiELDmcAO46Hj7w_OrO-109" value="" style="shape=partialRectangle;top=0;left=0;bottom=0;fillColor=none;align=left;verticalAlign=top;spacingLeft=4;spacingRight=4;overflow=hidden;rotatable=0;points=[];portConstraint=eastwest;part=1;" parent="4fiELDmcAO46Hj7w_OrO-108" vertex="1" connectable="0">
          <mxGeometry width="36" height="26" as="geometry"/>
        </mxCell>
        <mxCell id="4fiELDmcAO46Hj7w_OrO-128" value="users (comma separated ids)" style="shape=partialRectangle;top=0;left=0;right=0;bottom=0;align=left;verticalAlign=top;fillColor=none;spacingLeft=40;spacingRight=4;overflow=hidden;rotatable=0;points=[[0,0.5],[1,0.5]];portConstraint=eastwest;dropTarget=0;rounded=0;shadow=0;strokeWidth=1;" parent="4fiELDmcAO46Hj7w_OrO-103" vertex="1">
          <mxGeometry y="104" width="160" height="26" as="geometry"/>
        </mxCell>
        <mxCell id="4fiELDmcAO46Hj7w_OrO-129" value="" style="shape=partialRectangle;top=0;left=0;bottom=0;fillColor=none;align=left;verticalAlign=top;spacingLeft=4;spacingRight=4;overflow=hidden;rotatable=0;points=[];portConstraint=eastwest;part=1;" parent="4fiELDmcAO46Hj7w_OrO-128" vertex="1" connectable="0">
          <mxGeometry width="36" height="26" as="geometry"/>
        </mxCell>
        <mxCell id="4fiELDmcAO46Hj7w_OrO-110" value="discountAmount" style="shape=partialRectangle;top=0;left=0;right=0;bottom=0;align=left;verticalAlign=top;fillColor=none;spacingLeft=40;spacingRight=4;overflow=hidden;rotatable=0;points=[[0,0.5],[1,0.5]];portConstraint=eastwest;dropTarget=0;rounded=0;shadow=0;strokeWidth=1;" parent="4fiELDmcAO46Hj7w_OrO-103" vertex="1">
          <mxGeometry y="130" width="160" height="26" as="geometry"/>
        </mxCell>
        <mxCell id="4fiELDmcAO46Hj7w_OrO-111" value="" style="shape=partialRectangle;top=0;left=0;bottom=0;fillColor=none;align=left;verticalAlign=top;spacingLeft=4;spacingRight=4;overflow=hidden;rotatable=0;points=[];portConstraint=eastwest;part=1;" parent="4fiELDmcAO46Hj7w_OrO-110" vertex="1" connectable="0">
          <mxGeometry width="36" height="26" as="geometry"/>
        </mxCell>
        <mxCell id="4fiELDmcAO46Hj7w_OrO-112" value="discountPercent" style="shape=partialRectangle;top=0;left=0;right=0;bottom=0;align=left;verticalAlign=top;fillColor=none;spacingLeft=40;spacingRight=4;overflow=hidden;rotatable=0;points=[[0,0.5],[1,0.5]];portConstraint=eastwest;dropTarget=0;rounded=0;shadow=0;strokeWidth=1;" parent="4fiELDmcAO46Hj7w_OrO-103" vertex="1">
          <mxGeometry y="156" width="160" height="26" as="geometry"/>
        </mxCell>
        <mxCell id="4fiELDmcAO46Hj7w_OrO-113" value="" style="shape=partialRectangle;top=0;left=0;bottom=0;fillColor=none;align=left;verticalAlign=top;spacingLeft=4;spacingRight=4;overflow=hidden;rotatable=0;points=[];portConstraint=eastwest;part=1;" parent="4fiELDmcAO46Hj7w_OrO-112" vertex="1" connectable="0">
          <mxGeometry width="36" height="26" as="geometry"/>
        </mxCell>
        <mxCell id="4fiELDmcAO46Hj7w_OrO-114" value="maxDiscount" style="shape=partialRectangle;top=0;left=0;right=0;bottom=0;align=left;verticalAlign=top;fillColor=none;spacingLeft=40;spacingRight=4;overflow=hidden;rotatable=0;points=[[0,0.5],[1,0.5]];portConstraint=eastwest;dropTarget=0;rounded=0;shadow=0;strokeWidth=1;" parent="4fiELDmcAO46Hj7w_OrO-103" vertex="1">
          <mxGeometry y="182" width="160" height="26" as="geometry"/>
        </mxCell>
        <mxCell id="4fiELDmcAO46Hj7w_OrO-115" value="" style="shape=partialRectangle;top=0;left=0;bottom=0;fillColor=none;align=left;verticalAlign=top;spacingLeft=4;spacingRight=4;overflow=hidden;rotatable=0;points=[];portConstraint=eastwest;part=1;" parent="4fiELDmcAO46Hj7w_OrO-114" vertex="1" connectable="0">
          <mxGeometry width="36" height="26" as="geometry"/>
        </mxCell>
        <mxCell id="4fiELDmcAO46Hj7w_OrO-116" value="minCartAmount" style="shape=partialRectangle;top=0;left=0;right=0;bottom=0;align=left;verticalAlign=top;fillColor=none;spacingLeft=40;spacingRight=4;overflow=hidden;rotatable=0;points=[[0,0.5],[1,0.5]];portConstraint=eastwest;dropTarget=0;rounded=0;shadow=0;strokeWidth=1;" parent="4fiELDmcAO46Hj7w_OrO-103" vertex="1">
          <mxGeometry y="208" width="160" height="26" as="geometry"/>
        </mxCell>
        <mxCell id="4fiELDmcAO46Hj7w_OrO-117" value="" style="shape=partialRectangle;top=0;left=0;bottom=0;fillColor=none;align=left;verticalAlign=top;spacingLeft=4;spacingRight=4;overflow=hidden;rotatable=0;points=[];portConstraint=eastwest;part=1;" parent="4fiELDmcAO46Hj7w_OrO-116" vertex="1" connectable="0">
          <mxGeometry width="36" height="26" as="geometry"/>
        </mxCell>
        <mxCell id="4fiELDmcAO46Hj7w_OrO-118" value="usageLimit" style="shape=partialRectangle;top=0;left=0;right=0;bottom=0;align=left;verticalAlign=top;fillColor=none;spacingLeft=40;spacingRight=4;overflow=hidden;rotatable=0;points=[[0,0.5],[1,0.5]];portConstraint=eastwest;dropTarget=0;rounded=0;shadow=0;strokeWidth=1;" parent="4fiELDmcAO46Hj7w_OrO-103" vertex="1">
          <mxGeometry y="234" width="160" height="26" as="geometry"/>
        </mxCell>
        <mxCell id="4fiELDmcAO46Hj7w_OrO-119" value="" style="shape=partialRectangle;top=0;left=0;bottom=0;fillColor=none;align=left;verticalAlign=top;spacingLeft=4;spacingRight=4;overflow=hidden;rotatable=0;points=[];portConstraint=eastwest;part=1;" parent="4fiELDmcAO46Hj7w_OrO-118" vertex="1" connectable="0">
          <mxGeometry width="36" height="26" as="geometry"/>
        </mxCell>
        <mxCell id="4fiELDmcAO46Hj7w_OrO-130" value="currentUsageCount" style="shape=partialRectangle;top=0;left=0;right=0;bottom=0;align=left;verticalAlign=top;fillColor=none;spacingLeft=40;spacingRight=4;overflow=hidden;rotatable=0;points=[[0,0.5],[1,0.5]];portConstraint=eastwest;dropTarget=0;rounded=0;shadow=0;strokeWidth=1;" parent="4fiELDmcAO46Hj7w_OrO-103" vertex="1">
          <mxGeometry y="260" width="160" height="26" as="geometry"/>
        </mxCell>
        <mxCell id="4fiELDmcAO46Hj7w_OrO-131" value="" style="shape=partialRectangle;top=0;left=0;bottom=0;fillColor=none;align=left;verticalAlign=top;spacingLeft=4;spacingRight=4;overflow=hidden;rotatable=0;points=[];portConstraint=eastwest;part=1;" parent="4fiELDmcAO46Hj7w_OrO-130" vertex="1" connectable="0">
          <mxGeometry width="36" height="26" as="geometry"/>
        </mxCell>
        <mxCell id="4fiELDmcAO46Hj7w_OrO-120" value="createdAt" style="shape=partialRectangle;top=0;left=0;right=0;bottom=0;align=left;verticalAlign=top;fillColor=none;spacingLeft=40;spacingRight=4;overflow=hidden;rotatable=0;points=[[0,0.5],[1,0.5]];portConstraint=eastwest;dropTarget=0;rounded=0;shadow=0;strokeWidth=1;" parent="4fiELDmcAO46Hj7w_OrO-103" vertex="1">
          <mxGeometry y="286" width="160" height="26" as="geometry"/>
        </mxCell>
        <mxCell id="4fiELDmcAO46Hj7w_OrO-121" value="" style="shape=partialRectangle;top=0;left=0;bottom=0;fillColor=none;align=left;verticalAlign=top;spacingLeft=4;spacingRight=4;overflow=hidden;rotatable=0;points=[];portConstraint=eastwest;part=1;" parent="4fiELDmcAO46Hj7w_OrO-120" vertex="1" connectable="0">
          <mxGeometry width="36" height="26" as="geometry"/>
        </mxCell>
        <mxCell id="4fiELDmcAO46Hj7w_OrO-122" value="createdBy" style="shape=partialRectangle;top=0;left=0;right=0;bottom=0;align=left;verticalAlign=top;fillColor=none;spacingLeft=40;spacingRight=4;overflow=hidden;rotatable=0;points=[[0,0.5],[1,0.5]];portConstraint=eastwest;dropTarget=0;rounded=0;shadow=0;strokeWidth=1;" parent="4fiELDmcAO46Hj7w_OrO-103" vertex="1">
          <mxGeometry y="312" width="160" height="26" as="geometry"/>
        </mxCell>
        <mxCell id="4fiELDmcAO46Hj7w_OrO-123" value="" style="shape=partialRectangle;top=0;left=0;bottom=0;fillColor=none;align=left;verticalAlign=top;spacingLeft=4;spacingRight=4;overflow=hidden;rotatable=0;points=[];portConstraint=eastwest;part=1;" parent="4fiELDmcAO46Hj7w_OrO-122" vertex="1" connectable="0">
          <mxGeometry width="36" height="26" as="geometry"/>
        </mxCell>
        <mxCell id="4fiELDmcAO46Hj7w_OrO-124" value="deletedAt" style="shape=partialRectangle;top=0;left=0;right=0;bottom=0;align=left;verticalAlign=top;fillColor=none;spacingLeft=40;spacingRight=4;overflow=hidden;rotatable=0;points=[[0,0.5],[1,0.5]];portConstraint=eastwest;dropTarget=0;rounded=0;shadow=0;strokeWidth=1;" parent="4fiELDmcAO46Hj7w_OrO-103" vertex="1">
          <mxGeometry y="338" width="160" height="26" as="geometry"/>
        </mxCell>
        <mxCell id="4fiELDmcAO46Hj7w_OrO-125" value="" style="shape=partialRectangle;top=0;left=0;bottom=0;fillColor=none;align=left;verticalAlign=top;spacingLeft=4;spacingRight=4;overflow=hidden;rotatable=0;points=[];portConstraint=eastwest;part=1;" parent="4fiELDmcAO46Hj7w_OrO-124" vertex="1" connectable="0">
          <mxGeometry width="36" height="26" as="geometry"/>
        </mxCell>
        <mxCell id="4fiELDmcAO46Hj7w_OrO-126" value="deletedBy" style="shape=partialRectangle;top=0;left=0;right=0;bottom=0;align=left;verticalAlign=top;fillColor=none;spacingLeft=40;spacingRight=4;overflow=hidden;rotatable=0;points=[[0,0.5],[1,0.5]];portConstraint=eastwest;dropTarget=0;rounded=0;shadow=0;strokeWidth=1;" parent="4fiELDmcAO46Hj7w_OrO-103" vertex="1">
          <mxGeometry y="364" width="160" height="26" as="geometry"/>
        </mxCell>
        <mxCell id="4fiELDmcAO46Hj7w_OrO-127" value="" style="shape=partialRectangle;top=0;left=0;bottom=0;fillColor=none;align=left;verticalAlign=top;spacingLeft=4;spacingRight=4;overflow=hidden;rotatable=0;points=[];portConstraint=eastwest;part=1;" parent="4fiELDmcAO46Hj7w_OrO-126" vertex="1" connectable="0">
          <mxGeometry width="36" height="26" as="geometry"/>
        </mxCell>
        <mxCell id="4fiELDmcAO46Hj7w_OrO-134" style="edgeStyle=orthogonalEdgeStyle;rounded=0;orthogonalLoop=1;jettySize=auto;html=1;exitX=1;exitY=0.5;exitDx=0;exitDy=0;entryX=0;entryY=0.5;entryDx=0;entryDy=0;" parent="WIyWlLk6GJQsqaUBKTNV-1" source="4fiELDmcAO46Hj7w_OrO-132" target="4fiELDmcAO46Hj7w_OrO-104" edge="1">
          <mxGeometry relative="1" as="geometry"/>
        </mxCell>
      </root>
    </mxGraphModel>
  </diagram>
  <diagram id="1IG6SReBBUQ0tBme93o3" name="finance">
    <mxGraphModel dx="854" dy="475" grid="1" gridSize="10" guides="1" tooltips="1" connect="1" arrows="1" fold="1" page="1" pageScale="1" pageWidth="827" pageHeight="1169" math="0" shadow="0">
      <root>
        <mxCell id="xMyaygARofhauTIhsw_--0"/>
        <mxCell id="xMyaygARofhauTIhsw_--1" parent="xMyaygARofhauTIhsw_--0"/>
      </root>
    </mxGraphModel>
  </diagram>
  <diagram id="XRmiXyyh0V0vdBWhhmWV" name="accounts">
    <mxGraphModel dx="854" dy="1617" grid="1" gridSize="10" guides="1" tooltips="1" connect="1" arrows="1" fold="1" page="1" pageScale="1" pageWidth="827" pageHeight="1169" math="0" shadow="0">
      <root>
        <mxCell id="GjKBBZczS2Dd1HCJMwzH-0"/>
        <mxCell id="GjKBBZczS2Dd1HCJMwzH-1" parent="GjKBBZczS2Dd1HCJMwzH-0"/>
        <mxCell id="bz9OYhjtzBmJ0oZi46Nl-0" value="Clients" style="swimlane;fontStyle=1;childLayout=stackLayout;horizontal=1;startSize=26;horizontalStack=0;resizeParent=1;resizeLast=0;collapsible=1;marginBottom=0;rounded=0;shadow=0;strokeWidth=1;" parent="GjKBBZczS2Dd1HCJMwzH-1" vertex="1">
          <mxGeometry x="260" y="-180" width="160" height="104" as="geometry">
            <mxRectangle x="20" y="80" width="160" height="26" as="alternateBounds"/>
          </mxGeometry>
        </mxCell>
        <mxCell id="bz9OYhjtzBmJ0oZi46Nl-1" value="Id" style="shape=partialRectangle;top=0;left=0;right=0;bottom=1;align=left;verticalAlign=top;fillColor=none;spacingLeft=40;spacingRight=4;overflow=hidden;rotatable=0;points=[[0,0.5],[1,0.5]];portConstraint=eastwest;dropTarget=0;rounded=0;shadow=0;strokeWidth=1;fontStyle=4" parent="bz9OYhjtzBmJ0oZi46Nl-0" vertex="1">
          <mxGeometry y="26" width="160" height="26" as="geometry"/>
        </mxCell>
        <mxCell id="bz9OYhjtzBmJ0oZi46Nl-2" value="PK" style="shape=partialRectangle;top=0;left=0;bottom=0;fillColor=none;align=left;verticalAlign=top;spacingLeft=4;spacingRight=4;overflow=hidden;rotatable=0;points=[];portConstraint=eastwest;part=1;" parent="bz9OYhjtzBmJ0oZi46Nl-1" vertex="1" connectable="0">
          <mxGeometry width="36" height="26" as="geometry"/>
        </mxCell>
        <mxCell id="bz9OYhjtzBmJ0oZi46Nl-3" value="Name" style="shape=partialRectangle;top=0;left=0;right=0;bottom=0;align=left;verticalAlign=top;fillColor=none;spacingLeft=40;spacingRight=4;overflow=hidden;rotatable=0;points=[[0,0.5],[1,0.5]];portConstraint=eastwest;dropTarget=0;rounded=0;shadow=0;strokeWidth=1;" parent="bz9OYhjtzBmJ0oZi46Nl-0" vertex="1">
          <mxGeometry y="52" width="160" height="26" as="geometry"/>
        </mxCell>
        <mxCell id="bz9OYhjtzBmJ0oZi46Nl-4" value="" style="shape=partialRectangle;top=0;left=0;bottom=0;fillColor=none;align=left;verticalAlign=top;spacingLeft=4;spacingRight=4;overflow=hidden;rotatable=0;points=[];portConstraint=eastwest;part=1;" parent="bz9OYhjtzBmJ0oZi46Nl-3" vertex="1" connectable="0">
          <mxGeometry width="36" height="26" as="geometry"/>
        </mxCell>
        <mxCell id="bz9OYhjtzBmJ0oZi46Nl-5" value="Type(Individual, Business, Family)" style="shape=partialRectangle;top=0;left=0;right=0;bottom=0;align=left;verticalAlign=top;fillColor=none;spacingLeft=40;spacingRight=4;overflow=hidden;rotatable=0;points=[[0,0.5],[1,0.5]];portConstraint=eastwest;dropTarget=0;rounded=0;shadow=0;strokeWidth=1;" parent="bz9OYhjtzBmJ0oZi46Nl-0" vertex="1">
          <mxGeometry y="78" width="160" height="26" as="geometry"/>
        </mxCell>
        <mxCell id="bz9OYhjtzBmJ0oZi46Nl-6" value="" style="shape=partialRectangle;top=0;left=0;bottom=0;fillColor=none;align=left;verticalAlign=top;spacingLeft=4;spacingRight=4;overflow=hidden;rotatable=0;points=[];portConstraint=eastwest;part=1;" parent="bz9OYhjtzBmJ0oZi46Nl-5" vertex="1" connectable="0">
          <mxGeometry width="36" height="26" as="geometry"/>
        </mxCell>
        <mxCell id="bz9OYhjtzBmJ0oZi46Nl-7" value="Users" style="swimlane;fontStyle=1;childLayout=stackLayout;horizontal=1;startSize=26;horizontalStack=0;resizeParent=1;resizeLast=0;collapsible=1;marginBottom=0;rounded=0;shadow=0;strokeWidth=1;" parent="GjKBBZczS2Dd1HCJMwzH-1" vertex="1">
          <mxGeometry x="10" y="-180" width="160" height="130" as="geometry">
            <mxRectangle x="20" y="80" width="160" height="26" as="alternateBounds"/>
          </mxGeometry>
        </mxCell>
        <mxCell id="bz9OYhjtzBmJ0oZi46Nl-8" value="Id" style="shape=partialRectangle;top=0;left=0;right=0;bottom=1;align=left;verticalAlign=top;fillColor=none;spacingLeft=40;spacingRight=4;overflow=hidden;rotatable=0;points=[[0,0.5],[1,0.5]];portConstraint=eastwest;dropTarget=0;rounded=0;shadow=0;strokeWidth=1;fontStyle=4" parent="bz9OYhjtzBmJ0oZi46Nl-7" vertex="1">
          <mxGeometry y="26" width="160" height="26" as="geometry"/>
        </mxCell>
        <mxCell id="bz9OYhjtzBmJ0oZi46Nl-9" value="PK" style="shape=partialRectangle;top=0;left=0;bottom=0;fillColor=none;align=left;verticalAlign=top;spacingLeft=4;spacingRight=4;overflow=hidden;rotatable=0;points=[];portConstraint=eastwest;part=1;" parent="bz9OYhjtzBmJ0oZi46Nl-8" vertex="1" connectable="0">
          <mxGeometry width="36" height="26" as="geometry"/>
        </mxCell>
        <mxCell id="bz9OYhjtzBmJ0oZi46Nl-10" value="name" style="shape=partialRectangle;top=0;left=0;right=0;bottom=0;align=left;verticalAlign=top;fillColor=none;spacingLeft=40;spacingRight=4;overflow=hidden;rotatable=0;points=[[0,0.5],[1,0.5]];portConstraint=eastwest;dropTarget=0;rounded=0;shadow=0;strokeWidth=1;" parent="bz9OYhjtzBmJ0oZi46Nl-7" vertex="1">
          <mxGeometry y="52" width="160" height="26" as="geometry"/>
        </mxCell>
        <mxCell id="bz9OYhjtzBmJ0oZi46Nl-11" value="" style="shape=partialRectangle;top=0;left=0;bottom=0;fillColor=none;align=left;verticalAlign=top;spacingLeft=4;spacingRight=4;overflow=hidden;rotatable=0;points=[];portConstraint=eastwest;part=1;" parent="bz9OYhjtzBmJ0oZi46Nl-10" vertex="1" connectable="0">
          <mxGeometry width="36" height="26" as="geometry"/>
        </mxCell>
        <mxCell id="bz9OYhjtzBmJ0oZi46Nl-12" value="clientId" style="shape=partialRectangle;top=0;left=0;right=0;bottom=0;align=left;verticalAlign=top;fillColor=none;spacingLeft=40;spacingRight=4;overflow=hidden;rotatable=0;points=[[0,0.5],[1,0.5]];portConstraint=eastwest;dropTarget=0;rounded=0;shadow=0;strokeWidth=1;" parent="bz9OYhjtzBmJ0oZi46Nl-7" vertex="1">
          <mxGeometry y="78" width="160" height="26" as="geometry"/>
        </mxCell>
        <mxCell id="bz9OYhjtzBmJ0oZi46Nl-13" value="" style="shape=partialRectangle;top=0;left=0;bottom=0;fillColor=none;align=left;verticalAlign=top;spacingLeft=4;spacingRight=4;overflow=hidden;rotatable=0;points=[];portConstraint=eastwest;part=1;" parent="bz9OYhjtzBmJ0oZi46Nl-12" vertex="1" connectable="0">
          <mxGeometry width="36" height="26" as="geometry"/>
        </mxCell>
        <mxCell id="bz9OYhjtzBmJ0oZi46Nl-16" value="clientId" style="shape=partialRectangle;top=0;left=0;right=0;bottom=0;align=left;verticalAlign=top;fillColor=none;spacingLeft=40;spacingRight=4;overflow=hidden;rotatable=0;points=[[0,0.5],[1,0.5]];portConstraint=eastwest;dropTarget=0;rounded=0;shadow=0;strokeWidth=1;" parent="bz9OYhjtzBmJ0oZi46Nl-7" vertex="1">
          <mxGeometry y="104" width="160" height="26" as="geometry"/>
        </mxCell>
        <mxCell id="bz9OYhjtzBmJ0oZi46Nl-17" value="" style="shape=partialRectangle;top=0;left=0;bottom=0;fillColor=none;align=left;verticalAlign=top;spacingLeft=4;spacingRight=4;overflow=hidden;rotatable=0;points=[];portConstraint=eastwest;part=1;" parent="bz9OYhjtzBmJ0oZi46Nl-16" vertex="1" connectable="0">
          <mxGeometry width="36" height="26" as="geometry"/>
        </mxCell>
        <mxCell id="bz9OYhjtzBmJ0oZi46Nl-15" style="edgeStyle=orthogonalEdgeStyle;rounded=0;orthogonalLoop=1;jettySize=auto;html=1;exitX=1;exitY=0.5;exitDx=0;exitDy=0;entryX=0;entryY=0.5;entryDx=0;entryDy=0;" parent="GjKBBZczS2Dd1HCJMwzH-1" source="bz9OYhjtzBmJ0oZi46Nl-12" target="bz9OYhjtzBmJ0oZi46Nl-1" edge="1">
          <mxGeometry relative="1" as="geometry"/>
        </mxCell>
      </root>
    </mxGraphModel>
  </diagram>
  <diagram id="nz5XCaOA-p6gvWPFHo5J" name="analytics">
    <mxGraphModel dx="854" dy="448" grid="1" gridSize="10" guides="1" tooltips="1" connect="1" arrows="1" fold="1" page="1" pageScale="1" pageWidth="827" pageHeight="1169" math="0" shadow="0">
      <root>
        <mxCell id="toqsxG2Uz-B5y9aE4EF1-0"/>
        <mxCell id="toqsxG2Uz-B5y9aE4EF1-1" parent="toqsxG2Uz-B5y9aE4EF1-0"/>
      </root>
    </mxGraphModel>
  </diagram>
  <diagram id="nNeUR3zbISp-SWA2Ob2h" name="log">
    <mxGraphModel dx="854" dy="448" grid="1" gridSize="10" guides="1" tooltips="1" connect="1" arrows="1" fold="1" page="1" pageScale="1" pageWidth="827" pageHeight="1169" math="0" shadow="0">
      <root>
        <mxCell id="KFY5UDzE68M9G0NKIjNh-0"/>
        <mxCell id="KFY5UDzE68M9G0NKIjNh-1" parent="KFY5UDzE68M9G0NKIjNh-0"/>
      </root>
    </mxGraphModel>
  </diagram>
</mxfile>
